{
  "source": "C:\\Users\\Peter\\Desktop\\stuff\\MIUN\\quantitative_research\\video_compression\\videos\\BVI-HD\\BVI-HD_CDVL_videos\\ORIG\\Grass_1920x1080_60fps.mp4",
  "output": "C:\\Users\\Peter\\Desktop\\stuff\\MIUN\\quantitative_research\\video_compression\\compressed_videos\\BVI-HD\\hevc\\3\\Grass_1920x1080_60fps_hevc.mp4",
  "codec": "hevc",
  "ok": "Input #0, mov,mp4,m4a,3gp,3g2,mj2, from 'C:\\Users\\Peter\\Desktop\\stuff\\MIUN\\quantitative_research\\video_compression\\videos\\BVI-HD\\BVI-HD_CDVL_videos\\ORIG\\Grass_1920x1080_60fps.mp4':\n  Metadata:\n    major_brand     : isom\n    minor_version   : 512\n    compatible_brands: isomiso2avc1mp41\n    encoder         : Lavf54.28.101\n  Duration: 00:00:05.00, start: 0.000000, bitrate: 655968 kb/s\n  Stream #0:0[0x1](und): Video: h264 (High 4:4:4 Predictive) (avc1 / 0x31637661), yuv420p(progressive), 1920x1080, 655963 kb/s, 60 fps, 60 tbr, 60 tbn (default)\n    Metadata:\n      handler_name    : VideoHandler\n      vendor_id       : [0][0][0][0]\n[out#0/mp4 @ 00000207acccf040] Codec AVOption b:a (set bitrate (in bits/s)) has not been used for any stream. The most likely reason is either wrong type (e.g. a video option with no video streams) or that it is a private option of some decoder which was not actually used for any stream.\nStream mapping:\n  Stream #0:0 -> #0:0 (h264 (native) -> hevc (libx265))\nPress [q] to stop, [?] for help\n[libx265 @ 00000207abdec500] Unknown option: \"aq-mode.\nx265 [info]: HEVC encoder version 4.1+190-8f11c33ac\nx265 [info]: build info [Windows][GCC 15.1.0][64 bit] 10bit\nx265 [info]: using cpu capabilities: MMX2 SSE2Fast LZCNT SSSE3 SSE4.2 AVX FMA3 BMI2 AVX2\nx265 [info]: Main 10 profile, Level-4.1 (Main tier)\nx265 [info]: Thread pool created using 12 threads\nx265 [info]: Slices                              : 1\nx265 [info]: frame threads / pool features       : 3 / wpp(17 rows)\nx265 [info]: Coding QT: max CU size, min CU size : 64 / 8\nx265 [info]: Residual QT: max TU size, max depth : 32 / 1 inter / 1 intra\nx265 [info]: ME / range / subpel / merge         : star / 57 / 3 / 3\nx265 [info]: Keyframe min / max / scenecut / bias  : 25 / 250 / 40 / 5.00 \nx265 [info]: Lookahead / bframes / badapt        : 25 / 4 / 2\nx265 [info]: b-pyramid / weightp / weightb       : 1 / 1 / 0\nx265 [info]: References / ref-limit  cu / depth  : 4 / on / on\nx265 [info]: AQ: mode / str / qg-size / cu-tree  : 2 / 1.0 / 32 / 1\nx265 [info]: Rate Control / qCompress            : ABR-3000 kbps / 0.60\nx265 [info]: VBV/HRD buffer / max-rate / init    : 3000 / 3000 / 0.750\nx265 [info]: tools: rect limit-modes rd=4 psy-rd=2.00 rdoq=2 psy-rdoq=1.00\nx265 [info]: tools: rskip mode=1 signhide tmvp strong-intra-smoothing lslices=4\nx265 [info]: tools: deblock sao dhdr10-info\nOutput #0, mp4, to 'C:\\Users\\Peter\\Desktop\\stuff\\MIUN\\quantitative_research\\video_compression\\compressed_videos\\BVI-HD\\hevc\\3\\Grass_1920x1080_60fps_hevc.mp4':\n  Metadata:\n    major_brand     : isom\n    minor_version   : 512\n    compatible_brands: isomiso2avc1mp41\n    encoder         : Lavf62.3.100\n  Stream #0:0(und): Video: hevc (hev1 / 0x31766568), yuv420p10le(tv, progressive), 1920x1080, q=2-31, 3000 kb/s, 60 fps, 15360 tbn (default)\n    Metadata:\n      encoder         : Lavc62.11.100 libx265\n      handler_name    : VideoHandler\n      vendor_id       : [0][0][0][0]\n    Side data:\n      cpb: bitrate max/min/avg: 3000000/0/3000000 buffer size: 3000000 vbv_delay: N/A\nframe=    0 fps=0.0 q=0.0 size=       0KiB time=N/A bitrate=N/A speed=N/A elapsed=0:00:01.04    \nframe=    0 fps=0.0 q=0.0 size=       0KiB time=N/A bitrate=N/A speed=N/A elapsed=0:00:01.61    \nframe=    0 fps=0.0 q=0.0 size=       0KiB time=N/A bitrate=N/A speed=N/A elapsed=0:00:02.13    \nframe=    0 fps=0.0 q=0.0 size=       0KiB time=N/A bitrate=N/A speed=N/A elapsed=0:00:02.68    \nframe=    0 fps=0.0 q=0.0 size=       0KiB time=N/A bitrate=N/A speed=N/A elapsed=0:00:03.20    \nframe=    0 fps=0.0 q=0.0 size=       0KiB time=N/A bitrate=N/A speed=N/A elapsed=0:00:03.72    \nframe=    0 fps=0.0 q=0.0 size=       0KiB time=N/A bitrate=N/A speed=N/A elapsed=0:00:04.26    \nframe=    0 fps=0.0 q=0.0 size=       0KiB time=N/A bitrate=N/A speed=N/A elapsed=0:00:04.77    \nframe=    0 fps=0.0 q=0.0 size=       0KiB time=N/A bitrate=N/A speed=N/A elapsed=0:00:05.29    \nframe=    0 fps=0.0 q=0.0 size=       0KiB time=N/A bitrate=N/A speed=N/A elapsed=0:00:05.82    \nframe=    0 fps=0.0 q=0.0 size=       0KiB time=N/A bitrate=N/A speed=N/A elapsed=0:00:06.37    \nframe=    0 fps=0.0 q=0.0 size=       0KiB time=N/A bitrate=N/A speed=N/A elapsed=0:00:06.90    \nframe=    0 fps=0.0 q=0.0 size=       0KiB time=N/A bitrate=N/A speed=N/A elapsed=0:00:07.43    \nframe=    0 fps=0.0 q=0.0 size=       0KiB time=N/A bitrate=N/A speed=N/A elapsed=0:00:07.97    \nframe=    0 fps=0.0 q=0.0 size=       0KiB time=N/A bitrate=N/A speed=N/A elapsed=0:00:08.50    \nframe=    1 fps=0.1 q=40.4 size=       0KiB time=-00:00:00.01 bitrate=N/A speed=N/A elapsed=0:00:09.03    \nframe=    3 fps=0.3 q=51.0 size=       0KiB time=00:00:00.01 bitrate=  21.1kbits/s speed=0.00175x elapsed=0:00:09.54    \nframe=    3 fps=0.3 q=51.0 size=       0KiB time=00:00:00.01 bitrate=  21.1kbits/s speed=0.00165x elapsed=0:00:10.07    \nframe=    3 fps=0.3 q=51.0 size=       0KiB time=00:00:00.01 bitrate=  21.1kbits/s speed=0.00157x elapsed=0:00:10.62    \nframe=    3 fps=0.3 q=51.0 size=       0KiB time=00:00:00.01 bitrate=  21.1kbits/s speed=0.0015x elapsed=0:00:11.13    \nframe=    3 fps=0.3 q=51.0 size=       0KiB time=00:00:00.01 bitrate=  21.1kbits/s speed=0.00143x elapsed=0:00:11.65    \nframe=    4 fps=0.3 q=51.0 size=       0KiB time=00:00:00.03 bitrate=  10.6kbits/s speed=0.00273x elapsed=0:00:12.19    \nframe=    4 fps=0.3 q=51.0 size=       0KiB time=00:00:00.03 bitrate=  10.6kbits/s speed=0.00262x elapsed=0:00:12.72    \nframe=    5 fps=0.4 q=51.0 size=       0KiB time=00:00:00.05 bitrate=   7.0kbits/s speed=0.00377x elapsed=0:00:13.25    \nframe=    6 fps=0.4 q=44.0 size=       0KiB time=00:00:00.06 bitrate=   5.3kbits/s speed=0.00484x elapsed=0:00:13.77    \nframe=    6 fps=0.4 q=44.0 size=       0KiB time=00:00:00.06 bitrate=   5.3kbits/s speed=0.00466x elapsed=0:00:14.31    \nframe=    8 fps=0.5 q=48.0 size=       0KiB time=00:00:00.10 bitrate=   3.5kbits/s speed=0.00674x elapsed=0:00:14.84    \nframe=    8 fps=0.5 q=48.0 size=       0KiB time=00:00:00.10 bitrate=   3.5kbits/s speed=0.00651x elapsed=0:00:15.37    \nframe=    8 fps=0.5 q=48.0 size=       0KiB time=00:00:00.10 bitrate=   3.5kbits/s speed=0.00628x elapsed=0:00:15.93    \nframe=    9 fps=0.5 q=48.0 size=       0KiB time=00:00:00.11 bitrate=   3.0kbits/s speed=0.00708x elapsed=0:00:16.48    \nframe=    9 fps=0.5 q=48.0 size=       0KiB time=00:00:00.11 bitrate=   3.0kbits/s speed=0.00686x elapsed=0:00:17.01    \nframe=   11 fps=0.6 q=39.5 size=       0KiB time=00:00:00.15 bitrate=   2.3kbits/s speed=0.00855x elapsed=0:00:17.54    \nframe=   11 fps=0.6 q=39.5 size=       0KiB time=00:00:00.15 bitrate=   2.3kbits/s speed=0.00829x elapsed=0:00:18.10    \nframe=   11 fps=0.6 q=39.5 size=       0KiB time=00:00:00.15 bitrate=   2.3kbits/s speed=0.00805x elapsed=0:00:18.63    \nframe=   12 fps=0.6 q=47.1 size=       0KiB time=00:00:00.16 bitrate=   2.1kbits/s speed=0.00869x elapsed=0:00:19.17    \nframe=   13 fps=0.7 q=48.0 size=       0KiB time=00:00:00.18 bitrate=   1.9kbits/s speed=0.0093x elapsed=0:00:19.70    \nframe=   14 fps=0.7 q=41.5 size=       0KiB time=00:00:00.20 bitrate=   1.8kbits/s speed=0.00988x elapsed=0:00:20.23    \nframe=   15 fps=0.7 q=46.9 size=       0KiB time=00:00:00.21 bitrate=   1.6kbits/s speed=0.0104x elapsed=0:00:20.74    \nframe=   15 fps=0.7 q=46.9 size=       0KiB time=00:00:00.21 bitrate=   1.6kbits/s speed=0.0102x elapsed=0:00:21.25    \nframe=   15 fps=0.7 q=46.9 size=       0KiB time=00:00:00.21 bitrate=   1.6kbits/s speed=0.00994x elapsed=0:00:21.79    \nframe=   15 fps=0.7 q=46.9 size=       0KiB time=00:00:00.21 bitrate=   1.6kbits/s speed=0.00971x elapsed=0:00:22.31    \nframe=   16 fps=0.7 q=48.0 size=       0KiB time=00:00:00.23 bitrate=   1.5kbits/s speed=0.0102x elapsed=0:00:22.86    \nframe=   16 fps=0.7 q=48.0 size=       0KiB time=00:00:00.23 bitrate=   1.5kbits/s speed=0.00998x elapsed=0:00:23.37    \nframe=   16 fps=0.7 q=48.0 size=       0KiB time=00:00:00.23 bitrate=   1.5kbits/s speed=0.00975x elapsed=0:00:23.93    \nframe=   17 fps=0.7 q=49.0 size=       0KiB time=00:00:00.25 bitrate=   1.4kbits/s speed=0.0102x elapsed=0:00:24.46    \nframe=   18 fps=0.7 q=40.0 size=       0KiB time=00:00:00.26 bitrate=   1.3kbits/s speed=0.0107x elapsed=0:00:24.99    \nframe=   18 fps=0.7 q=40.0 size=       0KiB time=00:00:00.26 bitrate=   1.3kbits/s speed=0.0104x elapsed=0:00:25.52    \nframe=   19 fps=0.7 q=46.9 size=       0KiB time=00:00:00.28 bitrate=   1.2kbits/s speed=0.0109x elapsed=0:00:26.06    \nframe=   19 fps=0.7 q=46.9 size=       0KiB time=00:00:00.28 bitrate=   1.2kbits/s speed=0.0107x elapsed=0:00:26.59    \nframe=   20 fps=0.7 q=48.0 size=       0KiB time=00:00:00.30 bitrate=   1.2kbits/s speed=0.0111x elapsed=0:00:27.12    \nframe=   21 fps=0.8 q=48.0 size=       0KiB time=00:00:00.31 bitrate=   1.1kbits/s speed=0.0115x elapsed=0:00:27.64    \nframe=   21 fps=0.7 q=48.0 size=       0KiB time=00:00:00.31 bitrate=   1.1kbits/s speed=0.0112x elapsed=0:00:28.17    \nframe=   23 fps=0.8 q=46.6 size=       0KiB time=00:00:00.35 bitrate=   1.0kbits/s speed=0.0122x elapsed=0:00:28.68    \nframe=   23 fps=0.8 q=46.6 size=       0KiB time=00:00:00.35 bitrate=   1.0kbits/s speed=0.012x elapsed=0:00:29.19    \nframe=   23 fps=0.8 q=46.6 size=       0KiB time=00:00:00.35 bitrate=   1.0kbits/s speed=0.0118x elapsed=0:00:29.72    \nframe=   23 fps=0.8 q=46.6 size=       0KiB time=00:00:00.35 bitrate=   1.0kbits/s speed=0.0116x elapsed=0:00:30.25    \nframe=   23 fps=0.7 q=46.6 size=       0KiB time=00:00:00.35 bitrate=   1.0kbits/s speed=0.0114x elapsed=0:00:30.78    \nframe=   23 fps=0.7 q=46.6 size=       0KiB time=00:00:00.35 bitrate=   1.0kbits/s speed=0.0112x elapsed=0:00:31.31    \nframe=   24 fps=0.8 q=48.0 size=       0KiB time=00:00:00.36 bitrate=   1.0kbits/s speed=0.0115x elapsed=0:00:31.85    \nframe=   24 fps=0.7 q=48.0 size=       0KiB time=00:00:00.36 bitrate=   1.0kbits/s speed=0.0113x elapsed=0:00:32.39    \nframe=   25 fps=0.8 q=48.0 size=       0KiB time=00:00:00.38 bitrate=   0.9kbits/s speed=0.0116x elapsed=0:00:32.92    \nframe=   26 fps=0.8 q=39.7 size=       0KiB time=00:00:00.40 bitrate=   0.9kbits/s speed=0.012x elapsed=0:00:33.46    \nframe=   26 fps=0.8 q=39.7 size=       0KiB time=00:00:00.40 bitrate=   0.9kbits/s speed=0.0118x elapsed=0:00:33.99    \nframe=   27 fps=0.8 q=45.9 size=       0KiB time=00:00:00.41 bitrate=   0.8kbits/s speed=0.0121x elapsed=0:00:34.55    \nframe=   28 fps=0.8 q=47.0 size=       0KiB time=00:00:00.43 bitrate=   0.8kbits/s speed=0.0123x elapsed=0:00:35.10    \nframe=   29 fps=0.8 q=39.5 size=       0KiB time=00:00:00.45 bitrate=   0.8kbits/s speed=0.0126x elapsed=0:00:35.63    \nframe=   30 fps=0.8 q=45.7 size=       0KiB time=00:00:00.46 bitrate=   0.8kbits/s speed=0.0129x elapsed=0:00:36.16    \nframe=   30 fps=0.8 q=45.7 size=       0KiB time=00:00:00.46 bitrate=   0.8kbits/s speed=0.0127x elapsed=0:00:36.70    \nframe=   30 fps=0.8 q=45.7 size=       0KiB time=00:00:00.46 bitrate=   0.8kbits/s speed=0.0125x elapsed=0:00:37.23    \nframe=   30 fps=0.8 q=45.7 size=       0KiB time=00:00:00.46 bitrate=   0.8kbits/s speed=0.0124x elapsed=0:00:37.77    \nframe=   31 fps=0.8 q=47.0 size=       0KiB time=00:00:00.48 bitrate=   0.7kbits/s speed=0.0126x elapsed=0:00:38.29    \nframe=   31 fps=0.8 q=47.0 size=       0KiB time=00:00:00.48 bitrate=   0.7kbits/s speed=0.0124x elapsed=0:00:38.83    \nframe=   31 fps=0.8 q=47.0 size=       0KiB time=00:00:00.48 bitrate=   0.7kbits/s speed=0.0123x elapsed=0:00:39.38    \nframe=   31 fps=0.8 q=47.0 size=       0KiB time=00:00:00.48 bitrate=   0.7kbits/s speed=0.0121x elapsed=0:00:39.89    \nframe=   32 fps=0.8 q=47.0 size=       0KiB time=00:00:00.50 bitrate=   0.7kbits/s speed=0.0124x elapsed=0:00:40.43    \nframe=   33 fps=0.8 q=39.3 size=       0KiB time=00:00:00.51 bitrate=   0.7kbits/s speed=0.0126x elapsed=0:00:40.96    \nframe=   34 fps=0.8 q=45.3 size=       0KiB time=00:00:00.53 bitrate=   0.7kbits/s speed=0.0129x elapsed=0:00:41.49    \nframe=   34 fps=0.8 q=45.3 size=       0KiB time=00:00:00.53 bitrate=   0.7kbits/s speed=0.0127x elapsed=0:00:42.04    \nframe=   34 fps=0.8 q=45.3 size=       0KiB time=00:00:00.53 bitrate=   0.7kbits/s speed=0.0125x elapsed=0:00:42.57    \nframe=   34 fps=0.8 q=45.3 size=       0KiB time=00:00:00.53 bitrate=   0.7kbits/s speed=0.0124x elapsed=0:00:43.09    \nframe=   34 fps=0.8 q=45.3 size=       0KiB time=00:00:00.53 bitrate=   0.7kbits/s speed=0.0122x elapsed=0:00:43.63    \nframe=   35 fps=0.8 q=46.0 size=       0KiB time=00:00:00.55 bitrate=   0.6kbits/s speed=0.0125x elapsed=0:00:44.16    \nframe=   36 fps=0.8 q=46.0 size=       0KiB time=00:00:00.56 bitrate=   0.6kbits/s speed=0.0127x elapsed=0:00:44.70    \nframe=   36 fps=0.8 q=46.0 size=       0KiB time=00:00:00.56 bitrate=   0.6kbits/s speed=0.0125x elapsed=0:00:45.22    \nframe=   38 fps=0.8 q=44.3 size=       0KiB time=00:00:00.60 bitrate=   0.6kbits/s speed=0.0131x elapsed=0:00:45.75    \nframe=   38 fps=0.8 q=44.3 size=       0KiB time=00:00:00.60 bitrate=   0.6kbits/s speed=0.013x elapsed=0:00:46.30    \nframe=   38 fps=0.8 q=44.3 size=       0KiB time=00:00:00.60 bitrate=   0.6kbits/s speed=0.0128x elapsed=0:00:46.82    \nframe=   38 fps=0.8 q=44.3 size=       0KiB time=00:00:00.60 bitrate=   0.6kbits/s speed=0.0127x elapsed=0:00:47.37    \nframe=   38 fps=0.8 q=44.3 size=       0KiB time=00:00:00.60 bitrate=   0.6kbits/s speed=0.0125x elapsed=0:00:47.94    \nframe=   38 fps=0.8 q=44.3 size=       0KiB time=00:00:00.60 bitrate=   0.6kbits/s speed=0.0124x elapsed=0:00:48.46    \nframe=   39 fps=0.8 q=46.0 size=       0KiB time=00:00:00.61 bitrate=   0.6kbits/s speed=0.0126x elapsed=0:00:49.00    \nframe=   39 fps=0.8 q=46.0 size=       0KiB time=00:00:00.61 bitrate=   0.6kbits/s speed=0.0125x elapsed=0:00:49.52    \nframe=   41 fps=0.8 q=38.8 size=       0KiB time=00:00:00.65 bitrate=   0.5kbits/s speed=0.013x elapsed=0:00:50.04    \nframe=   41 fps=0.8 q=38.8 size=       0KiB time=00:00:00.65 bitrate=   0.5kbits/s speed=0.0129x elapsed=0:00:50.56    \nframe=   41 fps=0.8 q=38.8 size=       0KiB time=00:00:00.65 bitrate=   0.5kbits/s speed=0.0127x elapsed=0:00:51.09    \nframe=   42 fps=0.8 q=44.7 size=       0KiB time=00:00:00.66 bitrate=   0.5kbits/s speed=0.0129x elapsed=0:00:51.61    \nframe=   43 fps=0.8 q=46.0 size=       0KiB time=00:00:00.68 bitrate=   0.5kbits/s speed=0.0131x elapsed=0:00:52.13    \nframe=   44 fps=0.8 q=38.8 size=       0KiB time=00:00:00.70 bitrate=   0.5kbits/s speed=0.0133x elapsed=0:00:52.64    \nframe=   44 fps=0.8 q=38.8 size=       0KiB time=00:00:00.70 bitrate=   0.5kbits/s speed=0.0132x elapsed=0:00:53.17    \nframe=   44 fps=0.8 q=38.8 size=       0KiB time=00:00:00.70 bitrate=   0.5kbits/s speed=0.013x elapsed=0:00:53.71    \nframe=   45 fps=0.8 q=44.1 size=     256KiB time=00:00:00.71 bitrate=2926.7kbits/s speed=0.0132x elapsed=0:00:54.24    \nframe=   45 fps=0.8 q=44.1 size=     256KiB time=00:00:00.71 bitrate=2926.7kbits/s speed=0.0131x elapsed=0:00:54.78    \nframe=   45 fps=0.8 q=44.1 size=     256KiB time=00:00:00.71 bitrate=2926.7kbits/s speed=0.013x elapsed=0:00:55.33    \nframe=   45 fps=0.8 q=44.1 size=     256KiB time=00:00:00.71 bitrate=2926.7kbits/s speed=0.0128x elapsed=0:00:55.86    \nframe=   46 fps=0.8 q=46.1 size=     256KiB time=00:00:00.73 bitrate=2860.2kbits/s speed=0.013x elapsed=0:00:56.37    \nframe=   47 fps=0.8 q=45.1 size=     256KiB time=00:00:00.75 bitrate=2796.7kbits/s speed=0.0132x elapsed=0:00:56.89    \nframe=   47 fps=0.8 q=45.1 size=     256KiB time=00:00:00.75 bitrate=2796.7kbits/s speed=0.0131x elapsed=0:00:57.43    \nframe=   49 fps=0.8 q=44.1 size=     256KiB time=00:00:00.78 bitrate=2677.7kbits/s speed=0.0135x elapsed=0:00:58.00    \nframe=   49 fps=0.8 q=44.1 size=     256KiB time=00:00:00.78 bitrate=2677.7kbits/s speed=0.0134x elapsed=0:00:58.53    \nframe=   49 fps=0.8 q=44.1 size=     256KiB time=00:00:00.78 bitrate=2677.7kbits/s speed=0.0133x elapsed=0:00:59.06    \nframe=   49 fps=0.8 q=44.1 size=     256KiB time=00:00:00.78 bitrate=2677.7kbits/s speed=0.0131x elapsed=0:00:59.58    \nframe=   49 fps=0.8 q=44.1 size=     256KiB time=00:00:00.78 bitrate=2677.7kbits/s speed=0.013x elapsed=0:01:00.11    \nframe=   49 fps=0.8 q=44.1 size=     256KiB time=00:00:00.78 bitrate=2677.7kbits/s speed=0.0129x elapsed=0:01:00.64    \nframe=   49 fps=0.8 q=44.1 size=     256KiB time=00:00:00.78 bitrate=2677.7kbits/s speed=0.0128x elapsed=0:01:01.19    \nframe=   50 fps=0.8 q=45.0 size=     256KiB time=00:00:00.80 bitrate=2621.9kbits/s speed=0.013x elapsed=0:01:01.74    \nframe=   50 fps=0.8 q=45.0 size=     256KiB time=00:00:00.80 bitrate=2621.9kbits/s speed=0.0128x elapsed=0:01:02.25    \nframe=   51 fps=0.8 q=45.0 size=     256KiB time=00:00:00.81 bitrate=2568.4kbits/s speed=0.013x elapsed=0:01:02.77    \nframe=   52 fps=0.8 q=38.6 size=     256KiB time=00:00:00.83 bitrate=2517.0kbits/s speed=0.0132x elapsed=0:01:03.29    \nframe=   52 fps=0.8 q=38.6 size=     256KiB time=00:00:00.83 bitrate=2517.0kbits/s speed=0.0131x elapsed=0:01:03.85    \nframe=   52 fps=0.8 q=38.6 size=     256KiB time=00:00:00.83 bitrate=2517.0kbits/s speed=0.0129x elapsed=0:01:04.42    \nframe=   52 fps=0.8 q=38.6 size=     256KiB time=00:00:00.83 bitrate=2517.0kbits/s speed=0.0128x elapsed=0:01:04.99    \nframe=   52 fps=0.8 q=38.6 size=     256KiB time=00:00:00.83 bitrate=2517.0kbits/s speed=0.0127x elapsed=0:01:05.52    \nframe=   52 fps=0.8 q=38.6 size=     256KiB time=00:00:00.83 bitrate=2517.0kbits/s speed=0.0126x elapsed=0:01:06.05    \nframe=   52 fps=0.8 q=38.6 size=     256KiB time=00:00:00.83 bitrate=2517.0kbits/s speed=0.0125x elapsed=0:01:06.63    \nframe=   53 fps=0.8 q=44.8 size=     256KiB time=00:00:00.85 bitrate=2467.7kbits/s speed=0.0126x elapsed=0:01:07.20    \nframe=   53 fps=0.8 q=44.8 size=     256KiB time=00:00:00.85 bitrate=2467.7kbits/s speed=0.0125x elapsed=0:01:07.82    \nframe=   53 fps=0.8 q=44.8 size=     256KiB time=00:00:00.85 bitrate=2467.7kbits/s speed=0.0124x elapsed=0:01:08.44    \nframe=   53 fps=0.8 q=44.8 size=     256KiB time=00:00:00.85 bitrate=2467.7kbits/s speed=0.0123x elapsed=0:01:09.10    \nframe=   53 fps=0.8 q=44.8 size=     256KiB time=00:00:00.85 bitrate=2467.7kbits/s speed=0.0122x elapsed=0:01:09.77    \nframe=   53 fps=0.8 q=44.8 size=     256KiB time=00:00:00.85 bitrate=2467.7kbits/s speed=0.0121x elapsed=0:01:10.44    \nframe=   53 fps=0.7 q=44.8 size=     256KiB time=00:00:00.85 bitrate=2467.7kbits/s speed=0.012x elapsed=0:01:11.06    \nframe=   53 fps=0.7 q=44.8 size=     256KiB time=00:00:00.85 bitrate=2467.7kbits/s speed=0.0119x elapsed=0:01:11.64    \nframe=   53 fps=0.7 q=44.8 size=     256KiB time=00:00:00.85 bitrate=2467.7kbits/s speed=0.0118x elapsed=0:01:12.23    \nframe=   53 fps=0.7 q=44.8 size=     256KiB time=00:00:00.85 bitrate=2467.7kbits/s speed=0.0117x elapsed=0:01:12.88    \nframe=   53 fps=0.7 q=44.8 size=     256KiB time=00:00:00.85 bitrate=2467.7kbits/s speed=0.0116x elapsed=0:01:13.47    \nframe=   53 fps=0.7 q=44.8 size=     256KiB time=00:00:00.85 bitrate=2467.7kbits/s speed=0.0115x elapsed=0:01:14.05    \nframe=   54 fps=0.7 q=45.0 size=     256KiB time=00:00:00.86 bitrate=2420.2kbits/s speed=0.0116x elapsed=0:01:14.56    \nframe=   55 fps=0.7 q=38.6 size=     256KiB time=00:00:00.88 bitrate=2374.5kbits/s speed=0.0118x elapsed=0:01:15.11    \nframe=   55 fps=0.7 q=38.6 size=     256KiB time=00:00:00.88 bitrate=2374.5kbits/s speed=0.0117x elapsed=0:01:15.66    \nframe=   55 fps=0.7 q=38.6 size=     256KiB time=00:00:00.88 bitrate=2374.5kbits/s speed=0.0116x elapsed=0:01:16.24    \nframe=   55 fps=0.7 q=38.6 size=     256KiB time=00:00:00.88 bitrate=2374.5kbits/s speed=0.0115x elapsed=0:01:16.79    \nframe=   55 fps=0.7 q=38.6 size=     256KiB time=00:00:00.88 bitrate=2374.5kbits/s speed=0.0114x elapsed=0:01:17.35    \nframe=   56 fps=0.7 q=43.7 size=     256KiB time=00:00:00.90 bitrate=2330.6kbits/s speed=0.0116x elapsed=0:01:17.89    \nframe=   56 fps=0.7 q=43.7 size=     256KiB time=00:00:00.90 bitrate=2330.6kbits/s speed=0.0115x elapsed=0:01:18.43    \nframe=   56 fps=0.7 q=43.7 size=     256KiB time=00:00:00.90 bitrate=2330.6kbits/s speed=0.0114x elapsed=0:01:18.96    \nframe=   57 fps=0.7 q=45.0 size=     256KiB time=00:00:00.91 bitrate=2288.2kbits/s speed=0.0115x elapsed=0:01:19.48    \nframe=   58 fps=0.7 q=45.0 size=     256KiB time=00:00:00.93 bitrate=2247.3kbits/s speed=0.0117x elapsed=0:01:19.99    \nframe=   59 fps=0.7 q=38.7 size=     256KiB time=00:00:00.95 bitrate=2207.9kbits/s speed=0.0118x elapsed=0:01:20.51    \nframe=   60 fps=0.7 q=43.2 size=     256KiB time=00:00:00.96 bitrate=2169.8kbits/s speed=0.0119x elapsed=0:01:21.06    \nframe=   60 fps=0.7 q=43.2 size=     256KiB time=00:00:00.96 bitrate=2169.8kbits/s speed=0.0118x elapsed=0:01:21.61    \nframe=   60 fps=0.7 q=43.2 size=     256KiB time=00:00:00.96 bitrate=2169.8kbits/s speed=0.0118x elapsed=0:01:22.12    \nframe=   60 fps=0.7 q=43.2 size=     256KiB time=00:00:00.96 bitrate=2169.8kbits/s speed=0.0117x elapsed=0:01:22.64    \nframe=   62 fps=0.7 q=44.0 size=     256KiB time=00:00:01.00 bitrate=2097.5kbits/s speed=0.012x elapsed=0:01:23.15    \nframe=   62 fps=0.7 q=44.0 size=     256KiB time=00:00:01.00 bitrate=2097.5kbits/s speed=0.012x elapsed=0:01:23.66    \nframe=   63 fps=0.7 q=38.4 size=     256KiB time=00:00:01.01 bitrate=2063.1kbits/s speed=0.0121x elapsed=0:01:24.25    \nframe=   63 fps=0.7 q=38.4 size=     256KiB time=00:00:01.01 bitrate=2063.1kbits/s speed=0.012x elapsed=0:01:24.81    \nframe=   64 fps=0.7 q=43.1 size=     256KiB time=00:00:01.03 bitrate=2029.8kbits/s speed=0.0121x elapsed=0:01:25.39    \nframe=   65 fps=0.8 q=43.9 size=     256KiB time=00:00:01.05 bitrate=1997.6kbits/s speed=0.0122x elapsed=0:01:25.96    \nframe=   65 fps=0.8 q=43.9 size=     256KiB time=00:00:01.05 bitrate=1997.6kbits/s speed=0.0121x elapsed=0:01:26.53    \nframe=   66 fps=0.8 q=44.0 size=     256KiB time=00:00:01.06 bitrate=1966.4kbits/s speed=0.0123x elapsed=0:01:27.06    \nframe=   66 fps=0.8 q=44.0 size=     256KiB time=00:00:01.06 bitrate=1966.4kbits/s speed=0.0122x elapsed=0:01:27.62    \nframe=   67 fps=0.8 q=38.4 size=     256KiB time=00:00:01.08 bitrate=1936.2kbits/s speed=0.0123x elapsed=0:01:28.18    \nframe=   67 fps=0.8 q=38.4 size=     256KiB time=00:00:01.08 bitrate=1936.2kbits/s speed=0.0122x elapsed=0:01:28.76    \nframe=   67 fps=0.8 q=38.4 size=     256KiB time=00:00:01.08 bitrate=1936.2kbits/s speed=0.0121x elapsed=0:01:29.32    \nframe=   67 fps=0.7 q=38.4 size=     256KiB time=00:00:01.08 bitrate=1936.2kbits/s speed=0.0121x elapsed=0:01:29.86    \nframe=   67 fps=0.7 q=38.4 size=     256KiB time=00:00:01.08 bitrate=1936.2kbits/s speed=0.012x elapsed=0:01:30.37    \nframe=   67 fps=0.7 q=38.4 size=     256KiB time=00:00:01.08 bitrate=1936.2kbits/s speed=0.0119x elapsed=0:01:30.91    \nframe=   67 fps=0.7 q=38.4 size=     256KiB time=00:00:01.08 bitrate=1936.2kbits/s speed=0.0118x elapsed=0:01:31.45    \nframe=   67 fps=0.7 q=38.4 size=     256KiB time=00:00:01.08 bitrate=1936.2kbits/s speed=0.0118x elapsed=0:01:31.98    \nframe=   67 fps=0.7 q=38.4 size=     256KiB time=00:00:01.08 bitrate=1936.2kbits/s speed=0.0117x elapsed=0:01:32.59    \nframe=   67 fps=0.7 q=38.4 size=     256KiB time=00:00:01.08 bitrate=1936.2kbits/s speed=0.0116x elapsed=0:01:33.22    \nframe=   67 fps=0.7 q=38.4 size=     256KiB time=00:00:01.08 bitrate=1936.2kbits/s speed=0.0115x elapsed=0:01:33.80    \nframe=   67 fps=0.7 q=38.4 size=     256KiB time=00:00:01.08 bitrate=1936.2kbits/s speed=0.0115x elapsed=0:01:34.41    \nframe=   67 fps=0.7 q=38.4 size=     256KiB time=00:00:01.08 bitrate=1936.2kbits/s speed=0.0114x elapsed=0:01:34.97    \nframe=   67 fps=0.7 q=38.4 size=     256KiB time=00:00:01.08 bitrate=1936.2kbits/s speed=0.0113x elapsed=0:01:35.50    \nframe=   67 fps=0.7 q=38.4 size=     256KiB time=00:00:01.08 bitrate=1936.2kbits/s speed=0.0113x elapsed=0:01:36.05    \nframe=   68 fps=0.7 q=43.4 size=     256KiB time=00:00:01.10 bitrate=1906.8kbits/s speed=0.0114x elapsed=0:01:36.58    \nframe=   68 fps=0.7 q=43.4 size=     256KiB time=00:00:01.10 bitrate=1906.8kbits/s speed=0.0113x elapsed=0:01:37.12    \nframe=   68 fps=0.7 q=43.4 size=     256KiB time=00:00:01.10 bitrate=1906.8kbits/s speed=0.0113x elapsed=0:01:37.63    \nframe=   68 fps=0.7 q=43.4 size=     256KiB time=00:00:01.10 bitrate=1906.8kbits/s speed=0.0112x elapsed=0:01:38.17    \nframe=   68 fps=0.7 q=43.4 size=     256KiB time=00:00:01.10 bitrate=1906.8kbits/s speed=0.0111x elapsed=0:01:38.70    \nframe=   68 fps=0.7 q=43.4 size=     256KiB time=00:00:01.10 bitrate=1906.8kbits/s speed=0.0111x elapsed=0:01:39.25    \nframe=   68 fps=0.7 q=43.4 size=     256KiB time=00:00:01.10 bitrate=1906.8kbits/s speed=0.011x elapsed=0:01:39.79    \nframe=   69 fps=0.7 q=44.0 size=     256KiB time=00:00:01.11 bitrate=1878.4kbits/s speed=0.0111x elapsed=0:01:40.31    \nframe=   69 fps=0.7 q=44.0 size=     256KiB time=00:00:01.11 bitrate=1878.4kbits/s speed=0.0111x elapsed=0:01:40.84    \nframe=   71 fps=0.7 q=42.7 size=     256KiB time=00:00:01.15 bitrate=1823.9kbits/s speed=0.0113x elapsed=0:01:41.37    \nframe=   71 fps=0.7 q=42.7 size=     256KiB time=00:00:01.15 bitrate=1823.9kbits/s speed=0.0113x elapsed=0:01:41.95    \nframe=   71 fps=0.7 q=42.7 size=     256KiB time=00:00:01.15 bitrate=1823.9kbits/s speed=0.0112x elapsed=0:01:42.54    \nframe=   71 fps=0.7 q=42.7 size=     256KiB time=00:00:01.15 bitrate=1823.9kbits/s speed=0.0112x elapsed=0:01:43.11    \nframe=   71 fps=0.7 q=42.7 size=     256KiB time=00:00:01.15 bitrate=1823.9kbits/s speed=0.0111x elapsed=0:01:43.67    \nframe=   71 fps=0.7 q=42.7 size=     256KiB time=00:00:01.15 bitrate=1823.9kbits/s speed=0.011x elapsed=0:01:44.25    \nframe=   71 fps=0.7 q=42.7 size=     256KiB time=00:00:01.15 bitrate=1823.9kbits/s speed=0.011x elapsed=0:01:44.81    \nframe=   72 fps=0.7 q=44.0 size=     256KiB time=00:00:01.16 bitrate=1797.9kbits/s speed=0.0111x elapsed=0:01:45.38    \nframe=   72 fps=0.7 q=44.0 size=     256KiB time=00:00:01.16 bitrate=1797.9kbits/s speed=0.011x elapsed=0:01:45.99    \nframe=   72 fps=0.7 q=44.0 size=     256KiB time=00:00:01.16 bitrate=1797.9kbits/s speed=0.011x elapsed=0:01:46.52    \nframe=   72 fps=0.7 q=44.0 size=     256KiB time=00:00:01.16 bitrate=1797.9kbits/s speed=0.0109x elapsed=0:01:47.05    \nframe=   72 fps=0.7 q=44.0 size=     256KiB time=00:00:01.16 bitrate=1797.9kbits/s speed=0.0108x elapsed=0:01:47.60    \nframe=   73 fps=0.7 q=44.0 size=     256KiB time=00:00:01.18 bitrate=1772.5kbits/s speed=0.0109x elapsed=0:01:48.20    \nframe=   73 fps=0.7 q=44.0 size=     256KiB time=00:00:01.18 bitrate=1772.5kbits/s speed=0.0109x elapsed=0:01:48.79    \nframe=   73 fps=0.7 q=44.0 size=     256KiB time=00:00:01.18 bitrate=1772.5kbits/s speed=0.0108x elapsed=0:01:49.36    \nframe=   73 fps=0.7 q=44.0 size=     256KiB time=00:00:01.18 bitrate=1772.5kbits/s speed=0.0108x elapsed=0:01:49.94    \nframe=   73 fps=0.7 q=44.0 size=     256KiB time=00:00:01.18 bitrate=1772.5kbits/s speed=0.0107x elapsed=0:01:50.47    \nframe=   73 fps=0.7 q=44.0 size=     256KiB time=00:00:01.18 bitrate=1772.5kbits/s speed=0.0107x elapsed=0:01:51.04    \nframe=   73 fps=0.7 q=44.0 size=     256KiB time=00:00:01.18 bitrate=1772.5kbits/s speed=0.0106x elapsed=0:01:51.64    \nframe=   75 fps=0.7 q=43.3 size=     256KiB time=00:00:01.21 bitrate=1724.0kbits/s speed=0.0108x elapsed=0:01:52.23    \nframe=   75 fps=0.7 q=43.3 size=     256KiB time=00:00:01.21 bitrate=1724.0kbits/s speed=0.0108x elapsed=0:01:52.83    \nframe=   75 fps=0.7 q=43.3 size=     256KiB time=00:00:01.21 bitrate=1724.0kbits/s speed=0.0107x elapsed=0:01:53.39    \nframe=   75 fps=0.7 q=43.3 size=     256KiB time=00:00:01.21 bitrate=1724.0kbits/s speed=0.0107x elapsed=0:01:53.96    \nframe=   75 fps=0.7 q=43.3 size=     256KiB time=00:00:01.21 bitrate=1724.0kbits/s speed=0.0106x elapsed=0:01:54.50    \nframe=   75 fps=0.7 q=43.3 size=     256KiB time=00:00:01.21 bitrate=1724.0kbits/s speed=0.0106x elapsed=0:01:55.07    \nframe=   75 fps=0.6 q=43.3 size=     256KiB time=00:00:01.21 bitrate=1724.0kbits/s speed=0.0105x elapsed=0:01:55.62    \nframe=   75 fps=0.6 q=43.3 size=     256KiB time=00:00:01.21 bitrate=1724.0kbits/s speed=0.0105x elapsed=0:01:56.18    \nframe=   76 fps=0.7 q=44.0 size=     256KiB time=00:00:01.23 bitrate=1700.7kbits/s speed=0.0106x elapsed=0:01:56.72    \nframe=   76 fps=0.6 q=44.0 size=     256KiB time=00:00:01.23 bitrate=1700.7kbits/s speed=0.0105x elapsed=0:01:57.28    \nframe=   76 fps=0.6 q=44.0 size=     256KiB time=00:00:01.23 bitrate=1700.7kbits/s speed=0.0105x elapsed=0:01:57.84    \nframe=   76 fps=0.6 q=44.0 size=     256KiB time=00:00:01.23 bitrate=1700.7kbits/s speed=0.0104x elapsed=0:01:58.40    \nframe=   76 fps=0.6 q=44.0 size=     256KiB time=00:00:01.23 bitrate=1700.7kbits/s speed=0.0104x elapsed=0:01:58.96    \nframe=   76 fps=0.6 q=44.0 size=     256KiB time=00:00:01.23 bitrate=1700.7kbits/s speed=0.0103x elapsed=0:01:59.48    \nframe=   76 fps=0.6 q=44.0 size=     256KiB time=00:00:01.23 bitrate=1700.7kbits/s speed=0.0103x elapsed=0:02:00.01    \nframe=   77 fps=0.6 q=45.0 size=     256KiB time=00:00:01.25 bitrate=1678.0kbits/s speed=0.0104x elapsed=0:02:00.56    \nframe=   78 fps=0.6 q=37.8 size=     256KiB time=00:00:01.26 bitrate=1655.9kbits/s speed=0.0105x elapsed=0:02:01.14    \nframe=   78 fps=0.6 q=37.8 size=     256KiB time=00:00:01.26 bitrate=1655.9kbits/s speed=0.0104x elapsed=0:02:01.75    \nframe=   78 fps=0.6 q=37.8 size=     256KiB time=00:00:01.26 bitrate=1655.9kbits/s speed=0.0104x elapsed=0:02:02.33    \nframe=   78 fps=0.6 q=37.8 size=     256KiB time=00:00:01.26 bitrate=1655.9kbits/s speed=0.0103x elapsed=0:02:02.87    \nframe=   78 fps=0.6 q=37.8 size=     256KiB time=00:00:01.26 bitrate=1655.9kbits/s speed=0.0103x elapsed=0:02:03.41    \nframe=   78 fps=0.6 q=37.8 size=     256KiB time=00:00:01.26 bitrate=1655.9kbits/s speed=0.0102x elapsed=0:02:03.96    \nframe=   78 fps=0.6 q=37.8 size=     256KiB time=00:00:01.26 bitrate=1655.9kbits/s speed=0.0102x elapsed=0:02:04.48    \nframe=   78 fps=0.6 q=37.8 size=     256KiB time=00:00:01.26 bitrate=1655.9kbits/s speed=0.0101x elapsed=0:02:05.02    \nframe=   78 fps=0.6 q=37.8 size=     256KiB time=00:00:01.26 bitrate=1655.9kbits/s speed=0.0101x elapsed=0:02:05.57    \nframe=   78 fps=0.6 q=37.8 size=     256KiB time=00:00:01.26 bitrate=1655.9kbits/s speed=0.01x elapsed=0:02:06.17    \nframe=   78 fps=0.6 q=37.8 size=     256KiB time=00:00:01.26 bitrate=1655.9kbits/s speed=0.00999x elapsed=0:02:06.76    \nframe=   78 fps=0.6 q=37.8 size=     256KiB time=00:00:01.26 bitrate=1655.9kbits/s speed=0.00995x elapsed=0:02:07.30    \nframe=   79 fps=0.6 q=43.6 size=     256KiB time=00:00:01.28 bitrate=1634.4kbits/s speed=0.01x elapsed=0:02:07.87    \nframe=   79 fps=0.6 q=43.6 size=     256KiB time=00:00:01.28 bitrate=1634.4kbits/s speed=0.00999x elapsed=0:02:08.44    \nframe=   80 fps=0.6 q=45.0 size=     256KiB time=00:00:01.30 bitrate=1613.5kbits/s speed=0.0101x elapsed=0:02:08.98    \nframe=   80 fps=0.6 q=45.0 size=     256KiB time=00:00:01.30 bitrate=1613.5kbits/s speed=0.01x elapsed=0:02:09.51    \nframe=   80 fps=0.6 q=45.0 size=     256KiB time=00:00:01.30 bitrate=1613.5kbits/s speed=0.01x elapsed=0:02:10.06    \nframe=   81 fps=0.6 q=37.7 size=     256KiB time=00:00:01.31 bitrate=1593.0kbits/s speed=0.0101x elapsed=0:02:10.59    \nframe=   81 fps=0.6 q=37.7 size=     256KiB time=00:00:01.31 bitrate=1593.0kbits/s speed=0.01x elapsed=0:02:11.11    \nframe=   81 fps=0.6 q=37.7 size=     256KiB time=00:00:01.31 bitrate=1593.0kbits/s speed=0.01x elapsed=0:02:11.66    \nframe=   82 fps=0.6 q=42.9 size=     256KiB time=00:00:01.33 bitrate=1573.1kbits/s speed=0.0101x elapsed=0:02:12.23    \nframe=   82 fps=0.6 q=42.9 size=     256KiB time=00:00:01.33 bitrate=1573.1kbits/s speed=0.01x elapsed=0:02:12.76    \nframe=   82 fps=0.6 q=42.9 size=     256KiB time=00:00:01.33 bitrate=1573.1kbits/s speed=0.01x elapsed=0:02:13.33    \nframe=   82 fps=0.6 q=42.9 size=     256KiB time=00:00:01.33 bitrate=1573.1kbits/s speed=0.00996x elapsed=0:02:13.88    \nframe=   82 fps=0.6 q=42.9 size=     256KiB time=00:00:01.33 bitrate=1573.1kbits/s speed=0.00992x elapsed=0:02:14.42    \nframe=   82 fps=0.6 q=42.9 size=     256KiB time=00:00:01.33 bitrate=1573.1kbits/s speed=0.00988x elapsed=0:02:14.97    \nframe=   82 fps=0.6 q=42.9 size=     256KiB time=00:00:01.33 bitrate=1573.1kbits/s speed=0.00984x elapsed=0:02:15.51    \nframe=   82 fps=0.6 q=42.9 size=     256KiB time=00:00:01.33 bitrate=1573.1kbits/s speed=0.0098x elapsed=0:02:16.08    \nframe=   82 fps=0.6 q=42.9 size=     256KiB time=00:00:01.33 bitrate=1573.1kbits/s speed=0.00975x elapsed=0:02:16.69    \nframe=   82 fps=0.6 q=42.9 size=     256KiB time=00:00:01.33 bitrate=1573.1kbits/s speed=0.00971x elapsed=0:02:17.25    \nframe=   82 fps=0.6 q=42.9 size=     256KiB time=00:00:01.33 bitrate=1573.1kbits/s speed=0.00968x elapsed=0:02:17.77    \nframe=   82 fps=0.6 q=42.9 size=     256KiB time=00:00:01.33 bitrate=1573.1kbits/s speed=0.00964x elapsed=0:02:18.34    \nframe=   82 fps=0.6 q=42.9 size=     256KiB time=00:00:01.33 bitrate=1573.1kbits/s speed=0.0096x elapsed=0:02:18.86    \nframe=   83 fps=0.6 q=44.0 size=     256KiB time=00:00:01.35 bitrate=1553.7kbits/s speed=0.00969x elapsed=0:02:19.38    \nframe=   83 fps=0.6 q=44.0 size=     256KiB time=00:00:01.35 bitrate=1553.7kbits/s speed=0.00965x elapsed=0:02:19.95    \nframe=   83 fps=0.6 q=44.0 size=     256KiB time=00:00:01.35 bitrate=1553.7kbits/s speed=0.00961x elapsed=0:02:20.54    \nframe=   83 fps=0.6 q=44.0 size=     256KiB time=00:00:01.35 bitrate=1553.7kbits/s speed=0.00957x elapsed=0:02:21.11    \nframe=   83 fps=0.6 q=44.0 size=     256KiB time=00:00:01.35 bitrate=1553.7kbits/s speed=0.00953x elapsed=0:02:21.68    \nframe=   83 fps=0.6 q=44.0 size=     256KiB time=00:00:01.35 bitrate=1553.7kbits/s speed=0.00949x elapsed=0:02:22.26    \nframe=   83 fps=0.6 q=44.0 size=     256KiB time=00:00:01.35 bitrate=1553.7kbits/s speed=0.00945x elapsed=0:02:22.79    \nframe=   84 fps=0.6 q=44.0 size=     256KiB time=00:00:01.36 bitrate=1534.8kbits/s speed=0.00953x elapsed=0:02:23.33    \nframe=   85 fps=0.6 q=37.5 size=     256KiB time=00:00:01.38 bitrate=1516.3kbits/s speed=0.00961x elapsed=0:02:23.88    \nframe=   85 fps=0.6 q=37.5 size=     256KiB time=00:00:01.38 bitrate=1516.3kbits/s speed=0.00958x elapsed=0:02:24.41    \nframe=   85 fps=0.6 q=37.5 size=     256KiB time=00:00:01.38 bitrate=1516.3kbits/s speed=0.00954x elapsed=0:02:24.95    \nframe=   85 fps=0.6 q=37.5 size=     256KiB time=00:00:01.38 bitrate=1516.3kbits/s speed=0.00951x elapsed=0:02:25.50    \nframe=   86 fps=0.6 q=42.4 size=     256KiB time=00:00:01.40 bitrate=1498.2kbits/s speed=0.00959x elapsed=0:02:26.04    \nframe=   86 fps=0.6 q=42.4 size=     256KiB time=00:00:01.40 bitrate=1498.2kbits/s speed=0.00955x elapsed=0:02:26.58    \nframe=   86 fps=0.6 q=42.4 size=     256KiB time=00:00:01.40 bitrate=1498.2kbits/s speed=0.00951x elapsed=0:02:27.15    \nframe=   86 fps=0.6 q=42.4 size=     256KiB time=00:00:01.40 bitrate=1498.2kbits/s speed=0.00948x elapsed=0:02:27.69    \nframe=   86 fps=0.6 q=42.4 size=     256KiB time=00:00:01.40 bitrate=1498.2kbits/s speed=0.00944x elapsed=0:02:28.26    \nframe=   86 fps=0.6 q=42.4 size=     256KiB time=00:00:01.40 bitrate=1498.2kbits/s speed=0.0094x elapsed=0:02:28.85    \nframe=   87 fps=0.6 q=44.0 size=     256KiB time=00:00:01.41 bitrate=1480.6kbits/s speed=0.00948x elapsed=0:02:29.48    \nframe=   87 fps=0.6 q=44.0 size=     256KiB time=00:00:01.41 bitrate=1480.6kbits/s speed=0.00944x elapsed=0:02:30.14    \nframe=   87 fps=0.6 q=44.0 size=     256KiB time=00:00:01.41 bitrate=1480.6kbits/s speed=0.0094x elapsed=0:02:30.75    \nframe=   87 fps=0.6 q=44.0 size=     256KiB time=00:00:01.41 bitrate=1480.6kbits/s speed=0.00936x elapsed=0:02:31.36    \nframe=   87 fps=0.6 q=44.0 size=     256KiB time=00:00:01.41 bitrate=1480.6kbits/s speed=0.00933x elapsed=0:02:31.90    \nframe=   87 fps=0.6 q=44.0 size=     256KiB time=00:00:01.41 bitrate=1480.6kbits/s speed=0.00929x elapsed=0:02:32.43    \nframe=   87 fps=0.6 q=44.0 size=     256KiB time=00:00:01.41 bitrate=1480.6kbits/s speed=0.00926x elapsed=0:02:33.04    \nframe=   87 fps=0.6 q=44.0 size=     256KiB time=00:00:01.41 bitrate=1480.6kbits/s speed=0.00922x elapsed=0:02:33.63    \nframe=   88 fps=0.6 q=44.0 size=     256KiB time=00:00:01.43 bitrate=1463.4kbits/s speed=0.00929x elapsed=0:02:34.21    \nframe=   88 fps=0.6 q=44.0 size=     256KiB time=00:00:01.43 bitrate=1463.4kbits/s speed=0.00926x elapsed=0:02:34.78    \nframe=   89 fps=0.6 q=37.3 size=     256KiB time=00:00:01.45 bitrate=1446.6kbits/s speed=0.00934x elapsed=0:02:35.30    \nframe=   89 fps=0.6 q=37.3 size=     256KiB time=00:00:01.45 bitrate=1446.6kbits/s speed=0.0093x elapsed=0:02:35.85    \nframe=   89 fps=0.6 q=37.3 size=     256KiB time=00:00:01.45 bitrate=1446.6kbits/s speed=0.00927x elapsed=0:02:36.42    \nframe=   89 fps=0.6 q=37.3 size=     256KiB time=00:00:01.45 bitrate=1446.6kbits/s speed=0.00924x elapsed=0:02:36.96    \nframe=   89 fps=0.6 q=37.3 size=     256KiB time=00:00:01.45 bitrate=1446.6kbits/s speed=0.00921x elapsed=0:02:37.52    \nframe=   89 fps=0.6 q=37.3 size=     256KiB time=00:00:01.45 bitrate=1446.6kbits/s speed=0.00917x elapsed=0:02:38.04    \nframe=   90 fps=0.6 q=42.1 size=     256KiB time=00:00:01.46 bitrate=1430.1kbits/s speed=0.00925x elapsed=0:02:38.56    \nframe=   90 fps=0.6 q=42.1 size=     256KiB time=00:00:01.46 bitrate=1430.1kbits/s speed=0.00922x elapsed=0:02:39.10    \nframe=   91 fps=0.6 q=44.0 size=     256KiB time=00:00:01.48 bitrate=1414.0kbits/s speed=0.00929x elapsed=0:02:39.66    \nframe=   91 fps=0.6 q=44.0 size=     256KiB time=00:00:01.48 bitrate=1414.0kbits/s speed=0.00926x elapsed=0:02:40.20    \nframe=   92 fps=0.6 q=37.4 size=     256KiB time=00:00:01.50 bitrate=1398.3kbits/s speed=0.00933x elapsed=0:02:40.72    \nframe=   93 fps=0.6 q=42.0 size=     512KiB time=00:00:01.51 bitrate=2765.7kbits/s speed=0.0094x elapsed=0:02:41.27    \nframe=   93 fps=0.6 q=42.0 size=     512KiB time=00:00:01.51 bitrate=2765.7kbits/s speed=0.00937x elapsed=0:02:41.80    \nframe=   93 fps=0.6 q=42.0 size=     512KiB time=00:00:01.51 bitrate=2765.7kbits/s speed=0.00934x elapsed=0:02:42.34    \nframe=   94 fps=0.6 q=43.0 size=     512KiB time=00:00:01.53 bitrate=2735.6kbits/s speed=0.00941x elapsed=0:02:42.86    \nframe=   95 fps=0.6 q=43.0 size=     512KiB time=00:00:01.55 bitrate=2706.2kbits/s speed=0.00949x elapsed=0:02:43.39    \nframe=   95 fps=0.6 q=43.0 size=     512KiB time=00:00:01.55 bitrate=2706.2kbits/s speed=0.00945x elapsed=0:02:43.93    \nframe=   96 fps=0.6 q=37.2 size=     512KiB time=00:00:01.56 bitrate=2677.4kbits/s speed=0.00953x elapsed=0:02:44.47    \nframe=   97 fps=0.6 q=42.1 size=     512KiB time=00:00:01.58 bitrate=2649.3kbits/s speed=0.0096x elapsed=0:02:45.01    \nframe=   97 fps=0.6 q=42.1 size=     512KiB time=00:00:01.58 bitrate=2649.3kbits/s speed=0.00956x elapsed=0:02:45.54    \nframe=   97 fps=0.6 q=42.1 size=     512KiB time=00:00:01.58 bitrate=2649.3kbits/s speed=0.00953x elapsed=0:02:46.06    \nframe=   97 fps=0.6 q=42.1 size=     512KiB time=00:00:01.58 bitrate=2649.3kbits/s speed=0.0095x elapsed=0:02:46.58    \nframe=   98 fps=0.6 q=43.0 size=     512KiB time=00:00:01.60 bitrate=2621.7kbits/s speed=0.00958x elapsed=0:02:47.09    \nframe=   99 fps=0.6 q=43.1 size=     512KiB time=00:00:01.61 bitrate=2594.6kbits/s speed=0.00964x elapsed=0:02:47.62    \nframe=   99 fps=0.6 q=43.1 size=     512KiB time=00:00:01.61 bitrate=2594.6kbits/s speed=0.00961x elapsed=0:02:48.15    \nframe=  100 fps=0.6 q=37.2 size=     512KiB time=00:00:01.63 bitrate=2568.2kbits/s speed=0.00968x elapsed=0:02:48.67    \nframe=  100 fps=0.6 q=37.2 size=     512KiB time=00:00:01.63 bitrate=2568.2kbits/s speed=0.00965x elapsed=0:02:49.24    \nframe=  101 fps=0.6 q=42.0 size=     512KiB time=00:00:01.65 bitrate=2542.2kbits/s speed=0.00972x elapsed=0:02:49.76    \nframe=  101 fps=0.6 q=42.0 size=     512KiB time=00:00:01.65 bitrate=2542.2kbits/s speed=0.00969x elapsed=0:02:50.29    \nframe=  101 fps=0.6 q=42.0 size=     512KiB time=00:00:01.65 bitrate=2542.2kbits/s speed=0.00966x elapsed=0:02:50.82    \nframe=  101 fps=0.6 q=42.0 size=     512KiB time=00:00:01.65 bitrate=2542.2kbits/s speed=0.00963x elapsed=0:02:51.35    \nframe=  102 fps=0.6 q=43.1 size=     512KiB time=00:00:01.66 bitrate=2516.8kbits/s speed=0.0097x elapsed=0:02:51.89    \nframe=  102 fps=0.6 q=43.1 size=     512KiB time=00:00:01.66 bitrate=2516.8kbits/s speed=0.00967x elapsed=0:02:52.41    \nframe=  102 fps=0.6 q=43.1 size=     512KiB time=00:00:01.66 bitrate=2516.8kbits/s speed=0.00964x elapsed=0:02:52.93    \nframe=  103 fps=0.6 q=42.9 size=     512KiB time=00:00:01.68 bitrate=2491.9kbits/s speed=0.0097x elapsed=0:02:53.45    \nframe=  104 fps=0.6 q=37.1 size=     512KiB time=00:00:01.70 bitrate=2467.4kbits/s speed=0.00977x elapsed=0:02:53.99    \nframe=  104 fps=0.6 q=37.1 size=     512KiB time=00:00:01.70 bitrate=2467.4kbits/s speed=0.00974x elapsed=0:02:54.51    \nframe=  104 fps=0.6 q=37.1 size=     512KiB time=00:00:01.70 bitrate=2467.4kbits/s speed=0.00971x elapsed=0:02:55.04    \nframe=  105 fps=0.6 q=41.9 size=     512KiB time=00:00:01.71 bitrate=2443.5kbits/s speed=0.00978x elapsed=0:02:55.58    \nframe=  105 fps=0.6 q=41.9 size=     512KiB time=00:00:01.71 bitrate=2443.5kbits/s speed=0.00975x elapsed=0:02:56.08    \nframe=  105 fps=0.6 q=41.9 size=     512KiB time=00:00:01.71 bitrate=2443.5kbits/s speed=0.00972x elapsed=0:02:56.63    \nframe=  105 fps=0.6 q=41.9 size=     512KiB time=00:00:01.71 bitrate=2443.5kbits/s speed=0.00969x elapsed=0:02:57.16    \nframe=  105 fps=0.6 q=41.9 size=     512KiB time=00:00:01.71 bitrate=2443.5kbits/s speed=0.00966x elapsed=0:02:57.68    \nframe=  106 fps=0.6 q=43.1 size=     512KiB time=00:00:01.73 bitrate=2420.0kbits/s speed=0.00973x elapsed=0:02:58.20    \nframe=  106 fps=0.6 q=43.1 size=     512KiB time=00:00:01.73 bitrate=2420.0kbits/s speed=0.0097x elapsed=0:02:58.73    \nframe=  107 fps=0.6 q=42.9 size=     512KiB time=00:00:01.75 bitrate=2396.9kbits/s speed=0.00976x elapsed=0:02:59.27    \nframe=  107 fps=0.6 q=42.9 size=     512KiB time=00:00:01.75 bitrate=2396.9kbits/s speed=0.00973x elapsed=0:02:59.82    \nframe=  107 fps=0.6 q=42.9 size=     512KiB time=00:00:01.75 bitrate=2396.9kbits/s speed=0.0097x elapsed=0:03:00.33    \nframe=  108 fps=0.6 q=37.1 size=     512KiB time=00:00:01.76 bitrate=2374.3kbits/s speed=0.00977x elapsed=0:03:00.87    \nframe=  109 fps=0.6 q=41.9 size=     512KiB time=00:00:01.78 bitrate=2352.1kbits/s speed=0.00983x elapsed=0:03:01.40    \nframe=  109 fps=0.6 q=41.9 size=     512KiB time=00:00:01.78 bitrate=2352.1kbits/s speed=0.0098x elapsed=0:03:01.94    \nframe=  110 fps=0.6 q=42.9 size=     512KiB time=00:00:01.80 bitrate=2330.4kbits/s speed=0.00987x elapsed=0:03:02.46    \nframe=  110 fps=0.6 q=42.9 size=     512KiB time=00:00:01.80 bitrate=2330.4kbits/s speed=0.00984x elapsed=0:03:02.98    \nframe=  111 fps=0.6 q=42.8 size=     512KiB time=00:00:01.81 bitrate=2309.0kbits/s speed=0.0099x elapsed=0:03:03.53    \nframe=  112 fps=0.6 q=36.9 size=     512KiB time=00:00:01.83 bitrate=2288.0kbits/s speed=0.00996x elapsed=0:03:04.04    \nframe=  112 fps=0.6 q=36.9 size=     512KiB time=00:00:01.83 bitrate=2288.0kbits/s speed=0.00993x elapsed=0:03:04.55    \nframe=  113 fps=0.6 q=41.9 size=     512KiB time=00:00:01.85 bitrate=2267.4kbits/s speed=0.00999x elapsed=0:03:05.09    \nframe=  113 fps=0.6 q=41.9 size=     512KiB time=00:00:01.85 bitrate=2267.4kbits/s speed=0.00996x elapsed=0:03:05.66    \nframe=  114 fps=0.6 q=43.0 size=     512KiB time=00:00:01.86 bitrate=2247.1kbits/s speed=0.01x elapsed=0:03:06.21    \nframe=  114 fps=0.6 q=43.0 size=     512KiB time=00:00:01.86 bitrate=2247.1kbits/s speed=0.01x elapsed=0:03:06.75    \nframe=  114 fps=0.6 q=43.0 size=     512KiB time=00:00:01.86 bitrate=2247.1kbits/s speed=0.00996x elapsed=0:03:07.32    \nframe=  115 fps=0.6 q=42.9 size=     512KiB time=00:00:01.88 bitrate=2227.3kbits/s speed=0.01x elapsed=0:03:07.88    \nframe=  115 fps=0.6 q=42.9 size=     512KiB time=00:00:01.88 bitrate=2227.3kbits/s speed=0.00999x elapsed=0:03:08.44    \nframe=  115 fps=0.6 q=42.9 size=     512KiB time=00:00:01.88 bitrate=2227.3kbits/s speed=0.00996x elapsed=0:03:09.07    \nframe=  115 fps=0.6 q=42.9 size=     512KiB time=00:00:01.88 bitrate=2227.3kbits/s speed=0.00993x elapsed=0:03:09.66    \nframe=  115 fps=0.6 q=42.9 size=     512KiB time=00:00:01.88 bitrate=2227.3kbits/s speed=0.0099x elapsed=0:03:10.25    \nframe=  115 fps=0.6 q=42.9 size=     512KiB time=00:00:01.88 bitrate=2227.3kbits/s speed=0.00987x elapsed=0:03:10.88    \nframe=  115 fps=0.6 q=42.9 size=     512KiB time=00:00:01.88 bitrate=2227.3kbits/s speed=0.00984x elapsed=0:03:11.48    \nframe=  115 fps=0.6 q=42.9 size=     512KiB time=00:00:01.88 bitrate=2227.3kbits/s speed=0.00981x elapsed=0:03:12.04    \nframe=  115 fps=0.6 q=42.9 size=     512KiB time=00:00:01.88 bitrate=2227.3kbits/s speed=0.00978x elapsed=0:03:12.61    \nframe=  115 fps=0.6 q=42.9 size=     512KiB time=00:00:01.88 bitrate=2227.3kbits/s speed=0.00975x elapsed=0:03:13.14    \nframe=  116 fps=0.6 q=36.9 size=     512KiB time=00:00:01.90 bitrate=2207.7kbits/s speed=0.00981x elapsed=0:03:13.68    \nframe=  116 fps=0.6 q=36.9 size=     512KiB time=00:00:01.90 bitrate=2207.7kbits/s speed=0.00978x elapsed=0:03:14.24    \nframe=  117 fps=0.6 q=42.2 size=     512KiB time=00:00:01.91 bitrate=2188.5kbits/s speed=0.00984x elapsed=0:03:14.79    \nframe=  117 fps=0.6 q=42.2 size=     512KiB time=00:00:01.91 bitrate=2188.5kbits/s speed=0.00981x elapsed=0:03:15.33    \nframe=  118 fps=0.6 q=42.9 size=     512KiB time=00:00:01.93 bitrate=2169.7kbits/s speed=0.00987x elapsed=0:03:15.91    \nframe=  118 fps=0.6 q=42.9 size=     512KiB time=00:00:01.93 bitrate=2169.7kbits/s speed=0.00984x elapsed=0:03:16.48    \nframe=  118 fps=0.6 q=42.9 size=     512KiB time=00:00:01.93 bitrate=2169.7kbits/s speed=0.00981x elapsed=0:03:17.01    \nframe=  118 fps=0.6 q=42.9 size=     512KiB time=00:00:01.93 bitrate=2169.7kbits/s speed=0.00979x elapsed=0:03:17.55    \nframe=  118 fps=0.6 q=42.9 size=     512KiB time=00:00:01.93 bitrate=2169.7kbits/s speed=0.00976x elapsed=0:03:18.15    \nframe=  118 fps=0.6 q=42.9 size=     512KiB time=00:00:01.93 bitrate=2169.7kbits/s speed=0.00973x elapsed=0:03:18.77    \nframe=  118 fps=0.6 q=42.9 size=     512KiB time=00:00:01.93 bitrate=2169.7kbits/s speed=0.0097x elapsed=0:03:19.34    \nframe=  118 fps=0.6 q=42.9 size=     512KiB time=00:00:01.93 bitrate=2169.7kbits/s speed=0.00967x elapsed=0:03:19.88    \nframe=  118 fps=0.6 q=42.9 size=     512KiB time=00:00:01.93 bitrate=2169.7kbits/s speed=0.00965x elapsed=0:03:20.41    \nframe=  118 fps=0.6 q=42.9 size=     512KiB time=00:00:01.93 bitrate=2169.7kbits/s speed=0.00962x elapsed=0:03:20.95    \nframe=  118 fps=0.6 q=42.9 size=     512KiB time=00:00:01.93 bitrate=2169.7kbits/s speed=0.00959x elapsed=0:03:21.52    \nframe=  118 fps=0.6 q=42.9 size=     512KiB time=00:00:01.93 bitrate=2169.7kbits/s speed=0.00957x elapsed=0:03:22.07    \nframe=  118 fps=0.6 q=42.9 size=     512KiB time=00:00:01.93 bitrate=2169.7kbits/s speed=0.00954x elapsed=0:03:22.63    \nframe=  118 fps=0.6 q=42.9 size=     512KiB time=00:00:01.93 bitrate=2169.7kbits/s speed=0.00952x elapsed=0:03:23.17    \nframe=  118 fps=0.6 q=42.9 size=     512KiB time=00:00:01.93 bitrate=2169.7kbits/s speed=0.00949x elapsed=0:03:23.73    \nframe=  120 fps=0.6 q=43.0 size=     512KiB time=00:00:01.96 bitrate=2132.9kbits/s speed=0.00963x elapsed=0:03:24.28    \nframe=  120 fps=0.6 q=43.0 size=     512KiB time=00:00:01.96 bitrate=2132.9kbits/s speed=0.0096x elapsed=0:03:24.85    \nframe=  120 fps=0.6 q=43.0 size=     512KiB time=00:00:01.96 bitrate=2132.9kbits/s speed=0.00957x elapsed=0:03:25.40    \nframe=  120 fps=0.6 q=43.0 size=     512KiB time=00:00:01.96 bitrate=2132.9kbits/s speed=0.00955x elapsed=0:03:25.98    \nframe=  120 fps=0.6 q=43.0 size=     512KiB time=00:00:01.96 bitrate=2132.9kbits/s speed=0.00952x elapsed=0:03:26.60    \nframe=  120 fps=0.6 q=43.0 size=     512KiB time=00:00:01.96 bitrate=2132.9kbits/s speed=0.00949x elapsed=0:03:27.18    \nframe=  120 fps=0.6 q=43.0 size=     512KiB time=00:00:01.96 bitrate=2132.9kbits/s speed=0.00947x elapsed=0:03:27.75    \nframe=  120 fps=0.6 q=43.0 size=     512KiB time=00:00:01.96 bitrate=2132.9kbits/s speed=0.00944x elapsed=0:03:28.27    \nframe=  120 fps=0.6 q=43.0 size=     512KiB time=00:00:01.96 bitrate=2132.9kbits/s speed=0.00942x elapsed=0:03:28.82    \nframe=  120 fps=0.6 q=43.0 size=     512KiB time=00:00:01.96 bitrate=2132.9kbits/s speed=0.00939x elapsed=0:03:29.39    \nframe=  120 fps=0.6 q=43.0 size=     512KiB time=00:00:01.96 bitrate=2132.9kbits/s speed=0.00937x elapsed=0:03:29.91    \nframe=  121 fps=0.6 q=37.0 size=     512KiB time=00:00:01.98 bitrate=2115.0kbits/s speed=0.00942x elapsed=0:03:30.51    \nframe=  121 fps=0.6 q=37.0 size=     512KiB time=00:00:01.98 bitrate=2115.0kbits/s speed=0.0094x elapsed=0:03:31.02    \nframe=  121 fps=0.6 q=37.0 size=     512KiB time=00:00:01.98 bitrate=2115.0kbits/s speed=0.00937x elapsed=0:03:31.60    \nframe=  122 fps=0.6 q=42.1 size=     512KiB time=00:00:02.00 bitrate=2097.3kbits/s speed=0.00942x elapsed=0:03:32.20    \nframe=  122 fps=0.6 q=42.1 size=     512KiB time=00:00:02.00 bitrate=2097.3kbits/s speed=0.0094x elapsed=0:03:32.76    \nframe=  122 fps=0.6 q=42.1 size=     512KiB time=00:00:02.00 bitrate=2097.3kbits/s speed=0.00937x elapsed=0:03:33.36    \nframe=  122 fps=0.6 q=42.1 size=     512KiB time=00:00:02.00 bitrate=2097.3kbits/s speed=0.00935x elapsed=0:03:33.98    \nframe=  122 fps=0.6 q=42.1 size=     512KiB time=00:00:02.00 bitrate=2097.3kbits/s speed=0.00932x elapsed=0:03:34.59    \nframe=  122 fps=0.6 q=42.1 size=     512KiB time=00:00:02.00 bitrate=2097.3kbits/s speed=0.00929x elapsed=0:03:35.17    \nframe=  122 fps=0.6 q=42.1 size=     512KiB time=00:00:02.00 bitrate=2097.3kbits/s speed=0.00927x elapsed=0:03:35.76    \nframe=  122 fps=0.6 q=42.1 size=     512KiB time=00:00:02.00 bitrate=2097.3kbits/s speed=0.00924x elapsed=0:03:36.40    \nframe=  122 fps=0.6 q=42.1 size=     512KiB time=00:00:02.00 bitrate=2097.3kbits/s speed=0.00922x elapsed=0:03:37.03    \nframe=  122 fps=0.6 q=42.1 size=     512KiB time=00:00:02.00 bitrate=2097.3kbits/s speed=0.00919x elapsed=0:03:37.61    \nframe=  122 fps=0.6 q=42.1 size=     512KiB time=00:00:02.00 bitrate=2097.3kbits/s speed=0.00917x elapsed=0:03:38.20    \nframe=  122 fps=0.6 q=42.1 size=     512KiB time=00:00:02.00 bitrate=2097.3kbits/s speed=0.00914x elapsed=0:03:38.87    \nframe=  122 fps=0.6 q=42.1 size=     512KiB time=00:00:02.00 bitrate=2097.3kbits/s speed=0.00911x elapsed=0:03:39.44    \nframe=  122 fps=0.6 q=42.1 size=     512KiB time=00:00:02.00 bitrate=2097.3kbits/s speed=0.00909x elapsed=0:03:40.06    \nframe=  123 fps=0.6 q=44.0 size=     512KiB time=00:00:02.01 bitrate=2080.0kbits/s speed=0.00914x elapsed=0:03:40.63    \nframe=  123 fps=0.6 q=44.0 size=     512KiB time=00:00:02.01 bitrate=2080.0kbits/s speed=0.00912x elapsed=0:03:41.20    \nframe=  123 fps=0.6 q=44.0 size=     512KiB time=00:00:02.01 bitrate=2080.0kbits/s speed=0.0091x elapsed=0:03:41.73    \nframe=  124 fps=0.6 q=42.9 size=     512KiB time=00:00:02.03 bitrate=2062.9kbits/s speed=0.00915x elapsed=0:03:42.31    \nframe=  124 fps=0.6 q=42.9 size=     512KiB time=00:00:02.03 bitrate=2062.9kbits/s speed=0.00912x elapsed=0:03:42.87    \nframe=  124 fps=0.6 q=42.9 size=     512KiB time=00:00:02.03 bitrate=2062.9kbits/s speed=0.0091x elapsed=0:03:43.43    \nframe=  125 fps=0.6 q=37.0 size=     512KiB time=00:00:02.05 bitrate=2046.2kbits/s speed=0.00915x elapsed=0:03:43.99    \nframe=  126 fps=0.6 q=41.2 size=     512KiB time=00:00:02.06 bitrate=2029.7kbits/s speed=0.0092x elapsed=0:03:44.52    \nframe=  126 fps=0.6 q=41.2 size=     512KiB time=00:00:02.06 bitrate=2029.7kbits/s speed=0.00918x elapsed=0:03:45.09    \nframe=  126 fps=0.6 q=41.2 size=     512KiB time=00:00:02.06 bitrate=2029.7kbits/s speed=0.00916x elapsed=0:03:45.66    \nframe=  126 fps=0.6 q=41.2 size=     512KiB time=00:00:02.06 bitrate=2029.7kbits/s speed=0.00914x elapsed=0:03:46.20    \nframe=  126 fps=0.6 q=41.2 size=     512KiB time=00:00:02.06 bitrate=2029.7kbits/s speed=0.00911x elapsed=0:03:46.76    \nframe=  126 fps=0.6 q=41.2 size=     512KiB time=00:00:02.06 bitrate=2029.7kbits/s speed=0.00909x elapsed=0:03:47.27    \nframe=  126 fps=0.6 q=41.2 size=     512KiB time=00:00:02.06 bitrate=2029.7kbits/s speed=0.00907x elapsed=0:03:47.79    \nframe=  128 fps=0.6 q=43.0 size=     512KiB time=00:00:02.10 bitrate=1997.5kbits/s speed=0.0092x elapsed=0:03:48.34    \nframe=  128 fps=0.6 q=43.0 size=     512KiB time=00:00:02.10 bitrate=1997.5kbits/s speed=0.00918x elapsed=0:03:48.87    \nframe=  128 fps=0.6 q=43.0 size=     512KiB time=00:00:02.10 bitrate=1997.5kbits/s speed=0.00915x elapsed=0:03:49.39    \nframe=  129 fps=0.6 q=36.7 size=     512KiB time=00:00:02.11 bitrate=1981.7kbits/s speed=0.00921x elapsed=0:03:49.91    \nframe=  129 fps=0.6 q=36.7 size=     512KiB time=00:00:02.11 bitrate=1981.7kbits/s speed=0.00918x elapsed=0:03:50.50    \nframe=  130 fps=0.6 q=41.7 size=     512KiB time=00:00:02.13 bitrate=1966.2kbits/s speed=0.00923x elapsed=0:03:51.06    \nframe=  130 fps=0.6 q=41.7 size=     512KiB time=00:00:02.13 bitrate=1966.2kbits/s speed=0.00921x elapsed=0:03:51.60    \nframe=  130 fps=0.6 q=41.7 size=     512KiB time=00:00:02.13 bitrate=1966.2kbits/s speed=0.00919x elapsed=0:03:52.15    \nframe=  130 fps=0.6 q=41.7 size=     512KiB time=00:00:02.13 bitrate=1966.2kbits/s speed=0.00917x elapsed=0:03:52.71    \nframe=  130 fps=0.6 q=41.7 size=     512KiB time=00:00:02.13 bitrate=1966.2kbits/s speed=0.00914x elapsed=0:03:53.30    \nframe=  130 fps=0.6 q=41.7 size=     512KiB time=00:00:02.13 bitrate=1966.2kbits/s speed=0.00912x elapsed=0:03:53.87    \nframe=  130 fps=0.6 q=41.7 size=     512KiB time=00:00:02.13 bitrate=1966.2kbits/s speed=0.0091x elapsed=0:03:54.40    \nframe=  131 fps=0.6 q=43.0 size=     512KiB time=00:00:02.15 bitrate=1951.0kbits/s speed=0.00915x elapsed=0:03:54.91    \nframe=  131 fps=0.6 q=43.0 size=     512KiB time=00:00:02.15 bitrate=1951.0kbits/s speed=0.00913x elapsed=0:03:55.48    \nframe=  131 fps=0.6 q=43.0 size=     512KiB time=00:00:02.15 bitrate=1951.0kbits/s speed=0.00911x elapsed=0:03:56.04    \nframe=  131 fps=0.6 q=43.0 size=     512KiB time=00:00:02.15 bitrate=1951.0kbits/s speed=0.00909x elapsed=0:03:56.60    \nframe=  132 fps=0.6 q=43.0 size=     512KiB time=00:00:02.16 bitrate=1936.0kbits/s speed=0.00914x elapsed=0:03:57.14    \nframe=  132 fps=0.6 q=43.0 size=     512KiB time=00:00:02.16 bitrate=1936.0kbits/s speed=0.00912x elapsed=0:03:57.66    \nframe=  133 fps=0.6 q=36.8 size=     512KiB time=00:00:02.18 bitrate=1921.2kbits/s speed=0.00917x elapsed=0:03:58.18    \nframe=  133 fps=0.6 q=36.8 size=     512KiB time=00:00:02.18 bitrate=1921.2kbits/s speed=0.00915x elapsed=0:03:58.71    \nframe=  133 fps=0.6 q=36.8 size=     512KiB time=00:00:02.18 bitrate=1921.2kbits/s speed=0.00913x elapsed=0:03:59.24    \nframe=  133 fps=0.6 q=36.8 size=     512KiB time=00:00:02.18 bitrate=1921.2kbits/s speed=0.00911x elapsed=0:03:59.78    \nframe=  133 fps=0.6 q=36.8 size=     512KiB time=00:00:02.18 bitrate=1921.2kbits/s speed=0.00909x elapsed=0:04:00.31    \nframe=  133 fps=0.6 q=36.8 size=     512KiB time=00:00:02.18 bitrate=1921.2kbits/s speed=0.00906x elapsed=0:04:00.89    \nframe=  133 fps=0.6 q=36.8 size=     512KiB time=00:00:02.18 bitrate=1921.2kbits/s speed=0.00904x elapsed=0:04:01.41    \nframe=  133 fps=0.5 q=36.8 size=     512KiB time=00:00:02.18 bitrate=1921.2kbits/s speed=0.00902x elapsed=0:04:01.95    \nframe=  133 fps=0.5 q=36.8 size=     512KiB time=00:00:02.18 bitrate=1921.2kbits/s speed=0.009x elapsed=0:04:02.49    \nframe=  134 fps=0.6 q=41.3 size=     512KiB time=00:00:02.20 bitrate=1906.7kbits/s speed=0.00905x elapsed=0:04:03.04    \nframe=  135 fps=0.6 q=43.0 size=     512KiB time=00:00:02.21 bitrate=1892.3kbits/s speed=0.0091x elapsed=0:04:03.57    \nframe=  137 fps=0.6 q=41.1 size=     768KiB time=00:00:02.25 bitrate=2796.4kbits/s speed=0.00922x elapsed=0:04:04.12    \nframe=  137 fps=0.6 q=41.1 size=     768KiB time=00:00:02.25 bitrate=2796.4kbits/s speed=0.0092x elapsed=0:04:04.65    \nframe=  137 fps=0.6 q=41.1 size=     768KiB time=00:00:02.25 bitrate=2796.4kbits/s speed=0.00918x elapsed=0:04:05.22    \nframe=  137 fps=0.6 q=41.1 size=     768KiB time=00:00:02.25 bitrate=2796.4kbits/s speed=0.00916x elapsed=0:04:05.76    \nframe=  138 fps=0.6 q=43.0 size=     768KiB time=00:00:02.26 bitrate=2775.8kbits/s speed=0.0092x elapsed=0:04:06.29    \nframe=  138 fps=0.6 q=43.0 size=     768KiB time=00:00:02.26 bitrate=2775.8kbits/s speed=0.00918x elapsed=0:04:06.82    \nframe=  139 fps=0.6 q=42.9 size=     768KiB time=00:00:02.28 bitrate=2755.5kbits/s speed=0.00923x elapsed=0:04:07.35    \nframe=  141 fps=0.6 q=41.1 size=     768KiB time=00:00:02.31 bitrate=2715.9kbits/s speed=0.00934x elapsed=0:04:07.91    \nframe=  141 fps=0.6 q=41.1 size=     768KiB time=00:00:02.31 bitrate=2715.9kbits/s speed=0.00933x elapsed=0:04:08.42    \nframe=  141 fps=0.6 q=41.1 size=     768KiB time=00:00:02.31 bitrate=2715.9kbits/s speed=0.00931x elapsed=0:04:08.95    \nframe=  141 fps=0.6 q=41.1 size=     768KiB time=00:00:02.31 bitrate=2715.9kbits/s speed=0.00929x elapsed=0:04:09.49    \nframe=  142 fps=0.6 q=43.0 size=     768KiB time=00:00:02.33 bitrate=2696.5kbits/s speed=0.00933x elapsed=0:04:10.04    \nframe=  142 fps=0.6 q=43.0 size=     768KiB time=00:00:02.33 bitrate=2696.5kbits/s speed=0.00931x elapsed=0:04:10.57    \nframe=  143 fps=0.6 q=43.0 size=     768KiB time=00:00:02.35 bitrate=2677.4kbits/s speed=0.00936x elapsed=0:04:11.10    \nframe=  143 fps=0.6 q=43.0 size=     768KiB time=00:00:02.35 bitrate=2677.4kbits/s speed=0.00934x elapsed=0:04:11.63    \nframe=  144 fps=0.6 q=36.6 size=     768KiB time=00:00:02.36 bitrate=2658.5kbits/s speed=0.00938x elapsed=0:04:12.17    \nframe=  144 fps=0.6 q=36.6 size=     768KiB time=00:00:02.36 bitrate=2658.5kbits/s speed=0.00936x elapsed=0:04:12.73    \nframe=  145 fps=0.6 q=41.1 size=     768KiB time=00:00:02.38 bitrate=2639.9kbits/s speed=0.00941x elapsed=0:04:13.26    \nframe=  145 fps=0.6 q=41.1 size=     768KiB time=00:00:02.38 bitrate=2639.9kbits/s speed=0.00939x elapsed=0:04:13.81    \nframe=  145 fps=0.6 q=41.1 size=     768KiB time=00:00:02.38 bitrate=2639.9kbits/s speed=0.00937x elapsed=0:04:14.36    \nframe=  146 fps=0.6 q=43.0 size=     768KiB time=00:00:02.40 bitrate=2621.6kbits/s speed=0.00942x elapsed=0:04:14.90    \nframe=  147 fps=0.6 q=42.1 size=     768KiB time=00:00:02.41 bitrate=2603.5kbits/s speed=0.00946x elapsed=0:04:15.41    \nframe=  147 fps=0.6 q=42.1 size=     768KiB time=00:00:02.41 bitrate=2603.5kbits/s speed=0.00944x elapsed=0:04:15.94    \nframe=  148 fps=0.6 q=36.5 size=     768KiB time=00:00:02.43 bitrate=2585.7kbits/s speed=0.00949x elapsed=0:04:16.47    \nframe=  148 fps=0.6 q=36.5 size=     768KiB time=00:00:02.43 bitrate=2585.7kbits/s speed=0.00947x elapsed=0:04:17.01    \nframe=  149 fps=0.6 q=41.2 size=     768KiB time=00:00:02.45 bitrate=2568.1kbits/s speed=0.00951x elapsed=0:04:17.53    \nframe=  150 fps=0.6 q=43.1 size=     768KiB time=00:00:02.46 bitrate=2550.7kbits/s speed=0.00956x elapsed=0:04:18.07    \nframe=  152 fps=0.6 q=40.9 size=     768KiB time=00:00:02.48 bitrate=2533.6kbits/s speed=0.0096x elapsed=0:04:18.58    \nframe=  152 fps=0.6 q=40.9 size=     768KiB time=00:00:02.50 bitrate=2516.7kbits/s speed=0.00965x elapsed=0:04:19.14    \nframe=  152 fps=0.6 q=40.9 size=     768KiB time=00:00:02.50 bitrate=2516.7kbits/s speed=0.00963x elapsed=0:04:19.67    \nframe=  152 fps=0.6 q=40.9 size=     768KiB time=00:00:02.50 bitrate=2516.7kbits/s speed=0.00961x elapsed=0:04:20.19    \nframe=  152 fps=0.6 q=40.9 size=     768KiB time=00:00:02.50 bitrate=2516.7kbits/s speed=0.00959x elapsed=0:04:20.78    \nframe=  152 fps=0.6 q=40.9 size=     768KiB time=00:00:02.50 bitrate=2516.7kbits/s speed=0.00957x elapsed=0:04:21.32    \nframe=  153 fps=0.6 q=42.1 size=     768KiB time=00:00:02.51 bitrate=2500.1kbits/s speed=0.00961x elapsed=0:04:21.89    \nframe=  153 fps=0.6 q=42.1 size=     768KiB time=00:00:02.51 bitrate=2500.1kbits/s speed=0.00959x elapsed=0:04:22.43    \nframe=  153 fps=0.6 q=42.1 size=     768KiB time=00:00:02.51 bitrate=2500.1kbits/s speed=0.00957x elapsed=0:04:23.00    \nframe=  154 fps=0.6 q=42.0 size=     768KiB time=00:00:02.53 bitrate=2483.6kbits/s speed=0.00961x elapsed=0:04:23.61    \nframe=  154 fps=0.6 q=42.0 size=     768KiB time=00:00:02.53 bitrate=2483.6kbits/s speed=0.00959x elapsed=0:04:24.19    \nframe=  155 fps=0.6 q=36.5 size=     768KiB time=00:00:02.55 bitrate=2467.4kbits/s speed=0.00963x elapsed=0:04:24.73    \nframe=  155 fps=0.6 q=36.5 size=     768KiB time=00:00:02.55 bitrate=2467.4kbits/s speed=0.00961x elapsed=0:04:25.25    \nframe=  156 fps=0.6 q=40.9 size=     768KiB time=00:00:02.56 bitrate=2451.4kbits/s speed=0.00966x elapsed=0:04:25.79    \nframe=  156 fps=0.6 q=40.9 size=     768KiB time=00:00:02.56 bitrate=2451.4kbits/s speed=0.00964x elapsed=0:04:26.31    \nframe=  157 fps=0.6 q=43.0 size=     768KiB time=00:00:02.58 bitrate=2435.5kbits/s speed=0.00968x elapsed=0:04:26.83    \nframe=  158 fps=0.6 q=42.0 size=     768KiB time=00:00:02.60 bitrate=2419.9kbits/s speed=0.00972x elapsed=0:04:27.40    \nframe=  159 fps=0.6 q=36.7 size=     768KiB time=00:00:02.61 bitrate=2404.5kbits/s speed=0.00977x elapsed=0:04:27.92    \nframe=  160 fps=0.6 q=40.9 size=     768KiB time=00:00:02.63 bitrate=2389.3kbits/s speed=0.00981x elapsed=0:04:28.46    \nframe=  160 fps=0.6 q=40.9 size=     768KiB time=00:00:02.63 bitrate=2389.3kbits/s speed=0.00979x elapsed=0:04:28.99    \nframe=  161 fps=0.6 q=43.0 size=     768KiB time=00:00:02.65 bitrate=2374.3kbits/s speed=0.00983x elapsed=0:04:29.52    \nframe=  162 fps=0.6 q=42.1 size=     768KiB time=00:00:02.66 bitrate=2359.4kbits/s speed=0.00987x elapsed=0:04:30.04    \nframe=  163 fps=0.6 q=36.3 size=     768KiB time=00:00:02.68 bitrate=2344.8kbits/s speed=0.00992x elapsed=0:04:30.57    \nframe=  163 fps=0.6 q=36.3 size=     768KiB time=00:00:02.68 bitrate=2344.8kbits/s speed=0.0099x elapsed=0:04:31.10    \nframe=  164 fps=0.6 q=41.3 size=     768KiB time=00:00:02.70 bitrate=2330.3kbits/s speed=0.00994x elapsed=0:04:31.63    \nframe=  165 fps=0.6 q=43.0 size=     768KiB time=00:00:02.71 bitrate=2316.0kbits/s speed=0.00998x elapsed=0:04:32.14    \nframe=  166 fps=0.6 q=36.6 size=     768KiB time=00:00:02.73 bitrate=2301.9kbits/s speed=0.01x elapsed=0:04:32.66    \nframe=  167 fps=0.6 q=40.9 size=     768KiB time=00:00:02.75 bitrate=2287.9kbits/s speed=0.0101x elapsed=0:04:33.18    \nframe=  167 fps=0.6 q=40.9 size=     768KiB time=00:00:02.75 bitrate=2287.9kbits/s speed=0.01x elapsed=0:04:33.71    \nframe=  168 fps=0.6 q=42.1 size=     768KiB time=00:00:02.76 bitrate=2274.1kbits/s speed=0.0101x elapsed=0:04:34.24    \nframe=  169 fps=0.6 q=42.0 size=     768KiB time=00:00:02.78 bitrate=2260.5kbits/s speed=0.0101x elapsed=0:04:34.75    \nframe=  171 fps=0.6 q=40.9 size=     768KiB time=00:00:02.81 bitrate=2233.8kbits/s speed=0.0102x elapsed=0:04:35.27    \nframe=  171 fps=0.6 q=40.9 size=     768KiB time=00:00:02.81 bitrate=2233.8kbits/s speed=0.0102x elapsed=0:04:35.79    \nframe=  173 fps=0.6 q=42.0 size=     768KiB time=00:00:02.85 bitrate=2207.7kbits/s speed=0.0103x elapsed=0:04:36.32    \nframe=  173 fps=0.6 q=42.0 size=     768KiB time=00:00:02.85 bitrate=2207.7kbits/s speed=0.0103x elapsed=0:04:36.84    \nframe=  174 fps=0.6 q=36.3 size=     768KiB time=00:00:02.86 bitrate=2194.8kbits/s speed=0.0103x elapsed=0:04:37.36    \nframe=  174 fps=0.6 q=36.3 size=     768KiB time=00:00:02.86 bitrate=2194.8kbits/s speed=0.0103x elapsed=0:04:37.90    \nframe=  176 fps=0.6 q=43.0 size=     768KiB time=00:00:02.90 bitrate=2169.6kbits/s speed=0.0104x elapsed=0:04:38.42    \nframe=  177 fps=0.6 q=36.5 size=     768KiB time=00:00:02.91 bitrate=2157.2kbits/s speed=0.0105x elapsed=0:04:38.93    \nframe=  178 fps=0.6 q=40.4 size=    1024KiB time=00:00:02.93 bitrate=2859.9kbits/s speed=0.0105x elapsed=0:04:39.45    \nframe=  179 fps=0.6 q=42.0 size=    1024KiB time=00:00:02.95 bitrate=2843.7kbits/s speed=0.0105x elapsed=0:04:39.98    \nframe=  180 fps=0.6 q=42.0 size=    1024KiB time=00:00:02.96 bitrate=2827.7kbits/s speed=0.0106x elapsed=0:04:40.50    \nframe=  180 fps=0.6 q=42.0 size=    1024KiB time=00:00:02.96 bitrate=2827.7kbits/s speed=0.0106x elapsed=0:04:41.01    \nframe=  182 fps=0.6 q=41.0 size=    1024KiB time=00:00:03.00 bitrate=2796.3kbits/s speed=0.0107x elapsed=0:04:41.53    \nframe=  182 fps=0.6 q=41.0 size=    1024KiB time=00:00:03.00 bitrate=2796.3kbits/s speed=0.0106x elapsed=0:04:42.06    \nframe=  183 fps=0.6 q=42.2 size=    1024KiB time=00:00:03.01 bitrate=2780.9kbits/s speed=0.0107x elapsed=0:04:42.58    \nframe=  184 fps=0.6 q=41.9 size=    1024KiB time=00:00:03.03 bitrate=2765.6kbits/s speed=0.0107x elapsed=0:04:43.10    \nframe=  184 fps=0.6 q=41.9 size=    1024KiB time=00:00:03.03 bitrate=2765.6kbits/s speed=0.0107x elapsed=0:04:43.63    \nframe=  185 fps=0.7 q=36.6 size=    1024KiB time=00:00:03.05 bitrate=2750.5kbits/s speed=0.0107x elapsed=0:04:44.14    \nframe=  186 fps=0.7 q=41.2 size=    1024KiB time=00:00:03.06 bitrate=2735.5kbits/s speed=0.0108x elapsed=0:04:44.67    \nframe=  186 fps=0.7 q=41.2 size=    1024KiB time=00:00:03.06 bitrate=2735.5kbits/s speed=0.0108x elapsed=0:04:45.20    \nframe=  188 fps=0.7 q=42.0 size=    1024KiB time=00:00:03.10 bitrate=2706.1kbits/s speed=0.0108x elapsed=0:04:45.74    \nframe=  189 fps=0.7 q=36.5 size=    1024KiB time=00:00:03.11 bitrate=2691.6kbits/s speed=0.0109x elapsed=0:04:46.26    \nframe=  189 fps=0.7 q=36.5 size=    1024KiB time=00:00:03.11 bitrate=2691.6kbits/s speed=0.0109x elapsed=0:04:46.78    \nframe=  189 fps=0.7 q=36.5 size=    1024KiB time=00:00:03.11 bitrate=2691.6kbits/s speed=0.0108x elapsed=0:04:47.29    \nframe=  190 fps=0.7 q=41.4 size=    1024KiB time=00:00:03.13 bitrate=2677.3kbits/s speed=0.0109x elapsed=0:04:47.82    \nframe=  191 fps=0.7 q=43.0 size=    1024KiB time=00:00:03.15 bitrate=2663.2kbits/s speed=0.0109x elapsed=0:04:48.35    \nframe=  191 fps=0.7 q=43.0 size=    1024KiB time=00:00:03.15 bitrate=2663.2kbits/s speed=0.0109x elapsed=0:04:48.88    \nframe=  192 fps=0.7 q=36.4 size=    1024KiB time=00:00:03.16 bitrate=2649.1kbits/s speed=0.0109x elapsed=0:04:49.40    \nframe=  193 fps=0.7 q=40.8 size=    1024KiB time=00:00:03.18 bitrate=2635.3kbits/s speed=0.011x elapsed=0:04:49.92    \nframe=  193 fps=0.7 q=40.8 size=    1024KiB time=00:00:03.18 bitrate=2635.3kbits/s speed=0.011x elapsed=0:04:50.44    \nframe=  194 fps=0.7 q=42.0 size=    1024KiB time=00:00:03.20 bitrate=2621.6kbits/s speed=0.011x elapsed=0:04:50.96    \nframe=  196 fps=0.7 q=36.5 size=    1024KiB time=00:00:03.23 bitrate=2594.5kbits/s speed=0.0111x elapsed=0:04:51.47    \nframe=  197 fps=0.7 q=41.0 size=    1024KiB time=00:00:03.25 bitrate=2581.2kbits/s speed=0.0111x elapsed=0:04:52.00    \nframe=  197 fps=0.7 q=41.0 size=    1024KiB time=00:00:03.25 bitrate=2581.2kbits/s speed=0.0111x elapsed=0:04:52.54    \nframe=  198 fps=0.7 q=43.0 size=    1024KiB time=00:00:03.26 bitrate=2568.0kbits/s speed=0.0111x elapsed=0:04:53.06    \nframe=  200 fps=0.7 q=36.5 size=    1024KiB time=00:00:03.30 bitrate=2542.1kbits/s speed=0.0112x elapsed=0:04:53.59    \nframe=  200 fps=0.7 q=36.5 size=    1024KiB time=00:00:03.30 bitrate=2542.1kbits/s speed=0.0112x elapsed=0:04:54.11    \nframe=  201 fps=0.7 q=41.3 size=    1024KiB time=00:00:03.31 bitrate=2529.3kbits/s speed=0.0113x elapsed=0:04:54.62    \nframe=  201 fps=0.7 q=41.3 size=    1024KiB time=00:00:03.31 bitrate=2529.3kbits/s speed=0.0112x elapsed=0:04:55.16    \nframe=  201 fps=0.7 q=41.3 size=    1024KiB time=00:00:03.31 bitrate=2529.3kbits/s speed=0.0112x elapsed=0:04:55.66    \nframe=  202 fps=0.7 q=43.0 size=    1024KiB time=00:00:03.33 bitrate=2516.7kbits/s speed=0.0113x elapsed=0:04:56.19    \nframe=  203 fps=0.7 q=42.0 size=    1024KiB time=00:00:03.35 bitrate=2504.2kbits/s speed=0.0113x elapsed=0:04:56.72    \nframe=  203 fps=0.7 q=42.0 size=    1024KiB time=00:00:03.35 bitrate=2504.2kbits/s speed=0.0113x elapsed=0:04:57.23    \nframe=  204 fps=0.7 q=36.3 size=    1024KiB time=00:00:03.36 bitrate=2491.8kbits/s speed=0.0113x elapsed=0:04:57.75    \nframe=  205 fps=0.7 q=41.0 size=    1024KiB time=00:00:03.38 bitrate=2479.5kbits/s speed=0.0113x elapsed=0:04:58.26    \nframe=  205 fps=0.7 q=41.0 size=    1024KiB time=00:00:03.38 bitrate=2479.5kbits/s speed=0.0113x elapsed=0:04:58.79    \nframe=  205 fps=0.7 q=41.0 size=    1024KiB time=00:00:03.38 bitrate=2479.5kbits/s speed=0.0113x elapsed=0:04:59.31    \nframe=  205 fps=0.7 q=41.0 size=    1024KiB time=00:00:03.38 bitrate=2479.5kbits/s speed=0.0113x elapsed=0:04:59.82    \nframe=  206 fps=0.7 q=42.1 size=    1024KiB time=00:00:03.40 bitrate=2467.3kbits/s speed=0.0113x elapsed=0:05:00.34    \nframe=  207 fps=0.7 q=42.1 size=    1024KiB time=00:00:03.41 bitrate=2455.3kbits/s speed=0.0114x elapsed=0:05:00.86    \nframe=  208 fps=0.7 q=36.4 size=    1024KiB time=00:00:03.43 bitrate=2443.4kbits/s speed=0.0114x elapsed=0:05:01.38    \nframe=  208 fps=0.7 q=36.4 size=    1024KiB time=00:00:03.43 bitrate=2443.4kbits/s speed=0.0114x elapsed=0:05:01.90    \nframe=  209 fps=0.7 q=41.0 size=    1024KiB time=00:00:03.45 bitrate=2431.6kbits/s speed=0.0114x elapsed=0:05:02.42    \nframe=  209 fps=0.7 q=41.0 size=    1024KiB time=00:00:03.45 bitrate=2431.6kbits/s speed=0.0114x elapsed=0:05:02.93    \nframe=  210 fps=0.7 q=42.1 size=    1024KiB time=00:00:03.46 bitrate=2419.9kbits/s speed=0.0114x elapsed=0:05:03.45    \nframe=  211 fps=0.7 q=42.1 size=    1024KiB time=00:00:03.48 bitrate=2408.3kbits/s speed=0.0115x elapsed=0:05:03.96    \nframe=  211 fps=0.7 q=42.1 size=    1024KiB time=00:00:03.48 bitrate=2408.3kbits/s speed=0.0114x elapsed=0:05:04.48    \nframe=  212 fps=0.7 q=36.0 size=    1024KiB time=00:00:03.50 bitrate=2396.8kbits/s speed=0.0115x elapsed=0:05:05.02    \nframe=  214 fps=0.7 q=36.3 size=    1024KiB time=00:00:03.53 bitrate=2374.2kbits/s speed=0.0116x elapsed=0:05:05.53    \nframe=  214 fps=0.7 q=36.3 size=    1024KiB time=00:00:03.53 bitrate=2374.2kbits/s speed=0.0115x elapsed=0:05:06.07    \nframe=  215 fps=0.7 q=40.9 size=    1024KiB time=00:00:03.55 bitrate=2363.1kbits/s speed=0.0116x elapsed=0:05:06.61    \nframe=  217 fps=0.7 q=41.9 size=    1024KiB time=00:00:03.58 bitrate=2341.1kbits/s speed=0.0117x elapsed=0:05:07.11    \nframe=  219 fps=0.7 q=40.9 size=    1280KiB time=00:00:03.61 bitrate=2899.4kbits/s speed=0.0118x elapsed=0:05:07.64    \nframe=  220 fps=0.7 q=42.0 size=    1280KiB time=00:00:03.63 bitrate=2886.1kbits/s speed=0.0118x elapsed=0:05:08.16    \nframe=  222 fps=0.7 q=36.1 size=    1280KiB time=00:00:03.66 bitrate=2859.8kbits/s speed=0.0119x elapsed=0:05:08.67    \nframe=  223 fps=0.7 q=41.2 size=    1280KiB time=00:00:03.68 bitrate=2846.9kbits/s speed=0.0119x elapsed=0:05:09.19    \nframe=  223 fps=0.7 q=41.2 size=    1280KiB time=00:00:03.68 bitrate=2846.9kbits/s speed=0.0119x elapsed=0:05:09.69    \nframe=  225 fps=0.7 q=42.0 size=    1280KiB time=00:00:03.71 bitrate=2821.4kbits/s speed=0.012x elapsed=0:05:10.22    \nframe=  226 fps=0.7 q=36.0 size=    1280KiB time=00:00:03.73 bitrate=2808.8kbits/s speed=0.012x elapsed=0:05:10.73    \nframe=  227 fps=0.7 q=40.9 size=    1280KiB time=00:00:03.75 bitrate=2796.3kbits/s speed=0.012x elapsed=0:05:11.24    \nframe=  229 fps=0.7 q=42.1 size=    1280KiB time=00:00:03.78 bitrate=2771.7kbits/s speed=0.0121x elapsed=0:05:11.77    \nframe=  230 fps=0.7 q=36.8 size=    1280KiB time=00:00:03.80 bitrate=2759.5kbits/s speed=0.0122x elapsed=0:05:12.30    \nframe=  230 fps=0.7 q=36.8 size=    1280KiB time=00:00:03.80 bitrate=2759.5kbits/s speed=0.0121x elapsed=0:05:12.84    \nframe=  231 fps=0.7 q=42.5 size=    1280KiB time=00:00:03.81 bitrate=2747.5kbits/s speed=0.0122x elapsed=0:05:13.39    \nframe=  231 fps=0.7 q=42.5 size=    1280KiB time=00:00:03.81 bitrate=2747.5kbits/s speed=0.0122x elapsed=0:05:13.92    \nframe=  231 fps=0.7 q=42.5 size=    1280KiB time=00:00:03.81 bitrate=2747.5kbits/s speed=0.0121x elapsed=0:05:14.46    \nframe=  231 fps=0.7 q=42.5 size=    1280KiB time=00:00:03.81 bitrate=2747.5kbits/s speed=0.0121x elapsed=0:05:15.03    \nframe=  231 fps=0.7 q=42.5 size=    1280KiB time=00:00:03.81 bitrate=2747.5kbits/s speed=0.0121x elapsed=0:05:15.58    \nframe=  231 fps=0.7 q=42.5 size=    1280KiB time=00:00:03.81 bitrate=2747.5kbits/s speed=0.0121x elapsed=0:05:16.15    \nframe=  231 fps=0.7 q=42.5 size=    1280KiB time=00:00:03.81 bitrate=2747.5kbits/s speed=0.0121x elapsed=0:05:16.72    \nframe=  232 fps=0.7 q=44.0 size=    1280KiB time=00:00:03.83 bitrate=2735.5kbits/s speed=0.0121x elapsed=0:05:17.27    \nframe=  232 fps=0.7 q=44.0 size=    1280KiB time=00:00:03.83 bitrate=2735.5kbits/s speed=0.0121x elapsed=0:05:17.82    \nframe=  233 fps=0.7 q=44.0 size=    1280KiB time=00:00:03.85 bitrate=2723.7kbits/s speed=0.0121x elapsed=0:05:18.34    \nframe=  234 fps=0.7 q=36.7 size=    1280KiB time=00:00:03.86 bitrate=2711.9kbits/s speed=0.0121x elapsed=0:05:18.87    \nframe=  235 fps=0.7 q=43.3 size=    1280KiB time=00:00:03.88 bitrate=2700.3kbits/s speed=0.0122x elapsed=0:05:19.41    \nframe=  235 fps=0.7 q=43.3 size=    1280KiB time=00:00:03.88 bitrate=2700.3kbits/s speed=0.0121x elapsed=0:05:19.95    \nframe=  236 fps=0.7 q=44.0 size=    1280KiB time=00:00:03.90 bitrate=2688.7kbits/s speed=0.0122x elapsed=0:05:20.47    \nframe=  237 fps=0.7 q=44.0 size=    1280KiB time=00:00:03.91 bitrate=2677.3kbits/s speed=0.0122x elapsed=0:05:20.97    \nframe=  239 fps=0.7 q=42.6 size=    1280KiB time=00:00:03.95 bitrate=2654.7kbits/s speed=0.0123x elapsed=0:05:21.49    \nframe=  239 fps=0.7 q=42.6 size=    1280KiB time=00:00:03.95 bitrate=2654.7kbits/s speed=0.0123x elapsed=0:05:22.02    \nframe=  241 fps=0.7 q=44.1 size=    1280KiB time=00:00:03.98 bitrate=2632.5kbits/s speed=0.0123x elapsed=0:05:22.54    \nframe=  241 fps=0.7 q=44.1 size=    1280KiB time=00:00:03.98 bitrate=2632.5kbits/s speed=0.0123x elapsed=0:05:23.06    \nframe=  243 fps=0.8 q=43.0 size=    1280KiB time=00:00:04.01 bitrate=2610.7kbits/s speed=0.0124x elapsed=0:05:23.58    \nframe=  244 fps=0.8 q=44.0 size=    1280KiB time=00:00:04.03 bitrate=2599.9kbits/s speed=0.0124x elapsed=0:05:24.10    \nframe=  244 fps=0.8 q=44.0 size=    1280KiB time=00:00:04.03 bitrate=2599.9kbits/s speed=0.0124x elapsed=0:05:24.61    \nframe=  246 fps=0.8 q=44.0 size=    1280KiB time=00:00:04.06 bitrate=2578.6kbits/s speed=0.0125x elapsed=0:05:25.13    \nframe=  248 fps=0.8 q=42.2 size=    1280KiB time=00:00:04.10 bitrate=2557.6kbits/s speed=0.0126x elapsed=0:05:25.66    \nframe=  248 fps=0.8 q=42.2 size=    1280KiB time=00:00:04.10 bitrate=2557.6kbits/s speed=0.0126x elapsed=0:05:26.17    \nframe=  248 fps=0.8 q=42.2 size=    1280KiB time=00:00:04.10 bitrate=2557.6kbits/s speed=0.0125x elapsed=0:05:26.70    \nframe=  249 fps=0.8 q=43.9 size=    1280KiB time=00:00:04.11 bitrate=2547.2kbits/s speed=0.0126x elapsed=0:05:27.25    \nframe=  249 fps=0.8 q=43.9 size=    1280KiB time=00:00:04.11 bitrate=2547.2kbits/s speed=0.0126x elapsed=0:05:27.78    \nframe=  249 fps=0.8 q=43.9 size=    1280KiB time=00:00:04.11 bitrate=2547.2kbits/s speed=0.0125x elapsed=0:05:28.29    \nframe=  249 fps=0.8 q=43.9 size=    1280KiB time=00:00:04.11 bitrate=2547.2kbits/s speed=0.0125x elapsed=0:05:28.81    \nframe=  249 fps=0.8 q=43.9 size=    1280KiB time=00:00:04.11 bitrate=2547.2kbits/s speed=0.0125x elapsed=0:05:29.35    \nframe=  250 fps=0.8 q=44.0 size=    1280KiB time=00:00:04.13 bitrate=2537.0kbits/s speed=0.0125x elapsed=0:05:29.85    \nframe=  251 fps=0.8 q=35.4 size=    1280KiB time=00:00:04.15 bitrate=2526.8kbits/s speed=0.0126x elapsed=0:05:30.37    \nframe=  252 fps=0.8 q=37.2 size=    1536KiB time=00:00:04.16 bitrate=3020.0kbits/s speed=0.0126x elapsed=0:05:30.91    \nframe=  253 fps=0.8 q=43.4 size=    1536KiB time=00:00:04.18 bitrate=3008.0kbits/s speed=0.0126x elapsed=0:05:31.43    \nframe=  254 fps=0.8 q=45.0 size=    1536KiB time=00:00:04.20 bitrate=2996.0kbits/s speed=0.0127x elapsed=0:05:31.95    \nframe=  254 fps=0.8 q=45.0 size=    1536KiB time=00:00:04.20 bitrate=2996.0kbits/s speed=0.0126x elapsed=0:05:32.46    \nframe=  255 fps=0.8 q=45.0 size=    1536KiB time=00:00:04.21 bitrate=2984.2kbits/s speed=0.0127x elapsed=0:05:32.98    \nframe=  257 fps=0.8 q=43.5 size=    1536KiB time=00:00:04.25 bitrate=2960.8kbits/s speed=0.0127x elapsed=0:05:33.50    \nframe=  257 fps=0.8 q=43.5 size=    1536KiB time=00:00:04.25 bitrate=2960.8kbits/s speed=0.0127x elapsed=0:05:34.01    \nframe=  257 fps=0.8 q=43.5 size=    1536KiB time=00:00:04.25 bitrate=2960.8kbits/s speed=0.0127x elapsed=0:05:34.54    \nframe=  258 fps=0.8 q=45.0 size=    1536KiB time=00:00:04.26 bitrate=2949.2kbits/s speed=0.0127x elapsed=0:05:35.07    \nframe=  259 fps=0.8 q=45.0 size=    1536KiB time=00:00:04.28 bitrate=2937.7kbits/s speed=0.0128x elapsed=0:05:35.59    \nframe=  261 fps=0.8 q=39.1 size=    1536KiB time=00:00:04.31 bitrate=2915.0kbits/s speed=0.0128x elapsed=0:05:36.11    \nframe=  261 fps=0.8 q=39.1 size=    1536KiB time=00:00:04.31 bitrate=2915.0kbits/s speed=0.0128x elapsed=0:05:36.62    \nframe=  262 fps=0.8 q=45.0 size=    1536KiB time=00:00:04.33 bitrate=2903.8kbits/s speed=0.0129x elapsed=0:05:37.14    \nframe=  262 fps=0.8 q=45.0 size=    1536KiB time=00:00:04.33 bitrate=2903.8kbits/s speed=0.0128x elapsed=0:05:37.66    \nframe=  263 fps=0.8 q=45.0 size=    1536KiB time=00:00:04.35 bitrate=2892.7kbits/s speed=0.0129x elapsed=0:05:38.20    \nframe=  265 fps=0.8 q=36.9 size=    1536KiB time=00:00:04.38 bitrate=2870.7kbits/s speed=0.0129x elapsed=0:05:38.72    \nframe=  266 fps=0.8 q=43.4 size=    1536KiB time=00:00:04.40 bitrate=2859.8kbits/s speed=0.013x elapsed=0:05:39.25    \nframe=  266 fps=0.8 q=43.4 size=    1536KiB time=00:00:04.40 bitrate=2859.8kbits/s speed=0.013x elapsed=0:05:39.76    \nframe=  268 fps=0.8 q=45.0 size=    1536KiB time=00:00:04.43 bitrate=2838.3kbits/s speed=0.013x elapsed=0:05:40.27    \nframe=  269 fps=0.8 q=37.3 size=    1536KiB time=00:00:04.45 bitrate=2827.7kbits/s speed=0.0131x elapsed=0:05:40.79    \nframe=  270 fps=0.8 q=43.6 size=    1536KiB time=00:00:04.46 bitrate=2817.1kbits/s speed=0.0131x elapsed=0:05:41.31    \nframe=  270 fps=0.8 q=43.6 size=    1536KiB time=00:00:04.46 bitrate=2817.1kbits/s speed=0.0131x elapsed=0:05:41.84    \nframe=  271 fps=0.8 q=45.0 size=    1536KiB time=00:00:04.48 bitrate=2806.7kbits/s speed=0.0131x elapsed=0:05:42.35    \nframe=  273 fps=0.8 q=36.9 size=    1536KiB time=00:00:04.51 bitrate=2786.0kbits/s speed=0.0132x elapsed=0:05:42.87    \nframe=  273 fps=0.8 q=36.9 size=    1536KiB time=00:00:04.51 bitrate=2786.0kbits/s speed=0.0132x elapsed=0:05:43.40    \nframe=  275 fps=0.8 q=44.0 size=    1536KiB time=00:00:04.55 bitrate=2765.6kbits/s speed=0.0132x elapsed=0:05:43.91    \nframe=  276 fps=0.8 q=44.0 size=    1536KiB time=00:00:04.56 bitrate=2755.5kbits/s speed=0.0133x elapsed=0:05:44.43    \nframe=  278 fps=0.8 q=42.8 size=    1536KiB time=00:00:04.60 bitrate=2735.5kbits/s speed=0.0133x elapsed=0:05:44.95    \nframe=  279 fps=0.8 q=44.0 size=    1536KiB time=00:00:04.61 bitrate=2725.6kbits/s speed=0.0134x elapsed=0:05:45.46    \nframe=  281 fps=0.8 q=36.7 size=    1536KiB time=00:00:04.65 bitrate=2706.1kbits/s speed=0.0134x elapsed=0:05:45.98    \nframe=  281 fps=0.8 q=36.7 size=    1536KiB time=00:00:04.65 bitrate=2706.1kbits/s speed=0.0134x elapsed=0:05:46.49    \nframe=  282 fps=0.8 q=42.5 size=    1536KiB time=00:00:04.66 bitrate=2696.4kbits/s speed=0.0134x elapsed=0:05:47.01    \nframe=  282 fps=0.8 q=42.5 size=    1536KiB time=00:00:04.66 bitrate=2696.4kbits/s speed=0.0134x elapsed=0:05:47.53    \nframe=  284 fps=0.8 q=42.9 size=    1536KiB time=00:00:04.70 bitrate=2677.3kbits/s speed=0.0135x elapsed=0:05:48.05    \nframe=  286 fps=0.8 q=42.3 size=    1536KiB time=00:00:04.73 bitrate=2658.4kbits/s speed=0.0136x elapsed=0:05:48.58    \nframe=  286 fps=0.8 q=42.3 size=    1536KiB time=00:00:04.73 bitrate=2658.4kbits/s speed=0.0136x elapsed=0:05:49.10    \nframe=  286 fps=0.8 q=42.3 size=    1536KiB time=00:00:04.73 bitrate=2658.4kbits/s speed=0.0135x elapsed=0:05:49.64    \nframe=  286 fps=0.8 q=42.3 size=    1536KiB time=00:00:04.73 bitrate=2658.4kbits/s speed=0.0135x elapsed=0:05:50.16    \nframe=  288 fps=0.8 q=42.0 size=    1536KiB time=00:00:04.76 bitrate=2639.8kbits/s speed=0.0136x elapsed=0:05:50.69    \nframe=  288 fps=0.8 q=42.0 size=    1536KiB time=00:00:04.76 bitrate=2639.8kbits/s speed=0.0136x elapsed=0:05:51.22    \nframe=  289 fps=0.8 q=37.4 size=    1536KiB time=00:00:04.78 bitrate=2630.6kbits/s speed=0.0136x elapsed=0:05:51.74    \nframe=  290 fps=0.8 q=41.1 size=    1536KiB time=00:00:04.80 bitrate=2621.5kbits/s speed=0.0136x elapsed=0:05:52.26    \nframe=  291 fps=0.8 q=42.0 size=    1536KiB time=00:00:04.81 bitrate=2612.4kbits/s speed=0.0137x elapsed=0:05:52.79    \nframe=  292 fps=0.8 q=41.0 size=    1536KiB time=00:00:04.83 bitrate=2603.4kbits/s speed=0.0137x elapsed=0:05:53.33    \nframe=  294 fps=0.8 q=39.6 size=    1536KiB time=00:00:04.86 bitrate=2585.6kbits/s speed=0.0138x elapsed=0:05:53.87    \nframe=  294 fps=0.8 q=39.6 size=    1536KiB time=00:00:04.86 bitrate=2585.6kbits/s speed=0.0137x elapsed=0:05:54.40    \nframe=  294 fps=0.8 q=39.6 size=    1536KiB time=00:00:04.86 bitrate=2585.6kbits/s speed=0.0137x elapsed=0:05:54.92    \nframe=  294 fps=0.8 q=39.6 size=    1536KiB time=00:00:04.86 bitrate=2585.6kbits/s speed=0.0137x elapsed=0:05:55.44    \nframe=  295 fps=0.8 q=40.1 size=    1536KiB time=00:00:04.88 bitrate=2576.8kbits/s speed=0.0137x elapsed=0:05:55.99    \nframe=  295 fps=0.8 q=40.1 size=    1536KiB time=00:00:04.88 bitrate=2576.8kbits/s speed=0.0137x elapsed=0:05:56.52    \nframe=  296 fps=0.8 q=38.9 size=    1536KiB time=00:00:04.90 bitrate=2568.0kbits/s speed=0.0137x elapsed=0:05:57.03    \nframe=  297 fps=0.8 q=37.1 size=    1536KiB time=00:00:04.91 bitrate=2559.3kbits/s speed=0.0138x elapsed=0:05:57.56    \nframe=  297 fps=0.8 q=37.1 size=    1536KiB time=00:00:04.91 bitrate=2559.3kbits/s speed=0.0137x elapsed=0:05:58.09    \nframe=  298 fps=0.8 q=37.4 size=    1536KiB time=00:00:04.93 bitrate=2550.7kbits/s speed=0.0138x elapsed=0:05:58.61    \n[mp4 @ 00000207acccf140] Starting second pass: moving the moov atom to the beginning of the file\n[out#0/mp4 @ 00000207acccf040] video:1800KiB audio:0KiB subtitle:0KiB other streams:0KiB global headers:2KiB muxing overhead: 0.393717%\nframe=  300 fps=0.8 q=35.9 Lsize=    1807KiB time=00:00:04.96 bitrate=2981.0kbits/s speed=0.0138x elapsed=0:05:58.69    \nx265 [info]: frame I:      2, Avg QP:37.92  kb/s: 53397.84\nx265 [info]: frame P:     77, Avg QP:37.57  kb/s: 9071.84 \nx265 [info]: frame B:    221, Avg QP:43.36  kb/s: 357.27  \nx265 [info]: Weighted P-Frames: Y:0.0% UV:0.0%\n\nencoded 300 frames in 358.03s (0.84 fps), 2947.61 kb/s, Avg QP:41.84\n",
  "seconds": 359.23689579963684,
  "probe_out": {}
}